<svg width="1438" height="125" viewBox="0 0 1438 125" fill="none" xmlns="http://www.w3.org/2000/svg">
<g filter="url(#filter0_bd_114_16)">
<rect y="1" width="1440" height="125" fill="#00100B" fill-opacity="0.6" shape-rendering="crispEdges"/>
</g>
<path fill-rule="evenodd" clip-rule="evenodd" d="M315.858 62.0122C315.364 62.2313 315.05 62.727 315.064 63.2676V63.2851C315.061 63.6402 315.206 63.9806 315.464 64.2241C315.723 64.4677 316.071 64.5923 316.426 64.568C316.966 64.5572 317.447 64.2213 317.643 63.7174C317.839 63.2134 317.712 62.6409 317.321 62.2674C316.93 61.8938 316.352 61.7931 315.858 62.0122ZM286.639 62.6131H284.021V73.1993H286.639V62.6131ZM291.762 65.0218C289.284 65.0218 287.678 66.584 287.678 69.2022C287.678 71.864 289.249 73.3913 291.762 73.3913C294.276 73.3913 295.847 71.8204 295.847 69.2022C295.847 66.584 294.241 65.0218 291.762 65.0218ZM293.22 69.2022C293.22 67.7622 292.653 66.9156 291.762 66.9156C290.872 66.9156 290.314 67.7883 290.314 69.2022C290.314 70.616 290.863 71.4713 291.762 71.4713C292.661 71.4713 293.22 70.6684 293.22 69.2109V69.2022ZM299.347 73.7142H296.833V73.7229C296.982 75.1716 298.422 76.2102 300.734 76.2102C303.222 76.2102 304.906 75.0233 304.906 73.112V65.1701H302.288V66.6276C301.884 65.663 300.924 65.0506 299.879 65.0916C297.872 65.0916 296.667 66.6712 296.667 69.176C296.667 71.6807 297.933 73.1382 299.844 73.1382C300.856 73.1931 301.8 72.6263 302.227 71.7069H302.279V73.1731C302.279 73.9585 301.755 74.4996 300.76 74.4996C300.167 74.5794 299.592 74.2599 299.347 73.7142ZM302.288 69.1934C302.288 67.9193 301.703 67.1164 300.778 67.1164C299.853 67.1164 299.286 67.9105 299.286 69.1934C299.286 70.4764 299.844 71.2007 300.778 71.2007C301.712 71.2007 302.288 70.4938 302.288 69.2022V69.1934ZM309.976 65.0131C307.498 65.0131 305.892 66.5753 305.892 69.1934V69.2022C305.892 71.864 307.454 73.3825 309.976 73.3825C312.498 73.3825 314.069 71.8116 314.069 69.1934C314.069 66.5753 312.455 65.0131 309.976 65.0131ZM311.434 69.1935C311.434 67.7535 310.866 66.9069 309.976 66.9069C309.086 66.9069 308.571 67.7884 308.571 69.2109C308.571 70.6335 309.121 71.48 310.011 71.48C310.901 71.48 311.434 70.6684 311.434 69.2109V69.1935ZM315.064 65.1876H317.682V73.1993H315.064V65.1876ZM324.036 73.304C326.026 73.304 327.187 71.8116 327.187 69.1934L327.222 69.2109C327.222 66.5927 326.026 65.0916 324.019 65.0567C322.965 65.0097 321.996 65.6272 321.592 66.6014H321.54V65.1702H318.922V75.7651H321.54V71.8204H321.592C322.015 72.7786 322.991 73.3711 324.036 73.304ZM324.568 69.1934C324.568 67.9193 323.983 67.1076 323.067 67.1076C322.151 67.1076 321.566 67.928 321.557 69.1934C321.549 70.4589 322.151 71.2705 323.067 71.2705C323.983 71.2705 324.568 70.4764 324.568 69.2109V69.1934ZM335.233 67.6836C335.172 66.0342 333.854 65.0043 331.681 65.0043V65.0218C329.516 65.0218 328.111 66.0429 328.094 67.6138C328.094 68.8356 328.914 69.6647 330.476 69.9876L331.986 70.3105C332.615 70.4414 332.859 70.5287 332.859 70.9476C332.859 71.3665 332.51 71.6196 331.742 71.6196C330.974 71.6196 330.503 71.2705 330.424 70.6771H327.902C328.015 72.3091 329.473 73.3738 331.698 73.3738C333.924 73.3738 335.434 72.3091 335.434 70.6509C335.434 69.4378 334.753 68.792 333.156 68.4516L331.48 68.1112C330.895 67.9891 330.607 67.8582 330.607 67.448C330.607 67.0378 330.93 66.7585 331.655 66.7585C332.379 66.7585 332.85 67.1163 332.85 67.6836H335.233ZM344.17 73.1818H341.648V71.6894H341.595C341.31 72.7218 340.343 73.4157 339.274 73.3564C338.469 73.4021 337.684 73.0967 337.121 72.5192C336.559 71.9417 336.274 71.1488 336.341 70.3454V65.1702H338.96V69.7433C338.96 70.6945 339.448 71.2007 340.26 71.2007C340.645 71.2015 341.012 71.036 341.266 70.7468C341.52 70.4575 341.637 70.0726 341.587 69.6909V65.1702H344.205L344.17 73.1818ZM347.966 65.1701H345.435L345.391 73.1993H348.01V68.4778C347.97 68.1458 348.074 67.8125 348.296 67.5623C348.518 67.3121 348.836 67.1688 349.17 67.1687C349.886 67.1687 350.279 67.6051 350.279 68.408V73.1993H352.766V68.4603C352.723 68.1324 352.824 67.8019 353.044 67.5542C353.263 67.3065 353.579 67.1659 353.909 67.1687C354.642 67.1687 355.035 67.5702 355.035 68.4429V73.1993H357.653V67.7447C357.706 67.0261 357.45 66.3191 356.951 65.7997C356.452 65.2804 355.755 64.9976 355.035 65.0218C353.912 64.9735 352.9 65.6918 352.574 66.7672H352.522C352.348 65.6945 351.379 64.935 350.296 65.0218C349.24 65.0023 348.304 65.6981 348.018 66.7149H347.966V65.1701Z" fill="white"/>
<path fill-rule="evenodd" clip-rule="evenodd" d="M274.954 60.2829C275.667 61.1311 276.255 62.0775 276.699 63.0931C277.346 64.5738 277.679 66.1725 277.677 67.7884C277.672 74.3106 272.391 79.5994 265.869 79.6139C264.351 79.613 262.848 79.3166 261.444 78.7411C260.442 78.3432 259.502 77.8055 258.651 77.144C255.032 74.3858 253.32 69.7934 254.25 65.339C255.18 60.8846 258.587 57.361 263.007 56.2815C267.428 55.202 272.075 56.7586 274.954 60.2829ZM269.805 59.2269C268.569 58.6519 267.223 58.354 265.86 58.3541L265.869 58.3367C262.637 58.3343 259.629 59.9877 257.9 62.7176C256.17 65.4474 255.96 68.8731 257.342 71.7942C257.736 71.38 257.979 70.845 258.032 70.2756C258.349 68.0828 260.072 66.3603 262.264 66.0429C263.502 65.9307 264.49 64.9645 264.629 63.7302C264.947 61.5374 266.669 59.8148 268.862 59.4974C269.187 59.448 269.503 59.3571 269.805 59.2269ZM258.642 73.8975C258.677 73.8655 258.712 73.8344 258.747 73.8034L258.747 73.8034C258.817 73.7413 258.887 73.6793 258.957 73.6095C259.733 72.8567 260.231 71.863 260.37 70.7906C260.427 70.1877 260.696 69.6246 261.13 69.2022C261.547 68.7677 262.109 68.5008 262.709 68.4516C264.902 68.1342 266.625 66.4117 266.942 64.2189C266.98 63.5884 267.25 62.9943 267.701 62.552C268.129 62.126 268.696 61.8687 269.298 61.8276C270.279 61.6927 271.194 61.2566 271.917 60.5796C272.739 61.2621 273.436 62.0832 273.976 63.0058C273.943 63.0506 273.905 63.0916 273.863 63.128C273.446 63.5663 272.885 63.8391 272.283 63.896C270.088 64.2079 268.362 65.9332 268.05 68.1287C267.924 69.3674 266.942 70.3454 265.703 70.4676C263.504 70.7826 261.772 72.5034 261.444 74.7004C261.397 75.1269 261.25 75.5364 261.016 75.896C260.121 75.3644 259.319 74.6892 258.642 73.8975ZM263.242 76.8996C264.093 77.1438 264.974 77.2672 265.86 77.2662V77.2226C268.783 77.2112 271.536 75.847 273.315 73.5281C275.094 71.2092 275.699 68.1971 274.954 65.3709C274.291 65.8394 273.524 66.139 272.719 66.2436C271.484 66.3697 270.507 67.3468 270.381 68.5825C270.062 70.7781 268.335 72.5014 266.139 72.8153C264.903 72.9414 263.926 73.9184 263.8 75.1542C263.722 75.7652 263.533 76.3568 263.242 76.8996Z" fill="white"/>
<path d="M485.5 64.0445C485.814 64.0445 485.919 64.1579 485.919 64.4634V71.3754H489.471C489.776 71.3754 489.889 71.4889 489.889 71.7943V72.4052C489.889 72.7107 489.776 72.8242 489.471 72.8242H484.793C484.487 72.8242 484.365 72.7107 484.365 72.4052V64.4634C484.365 64.1579 484.487 64.0445 484.793 64.0445H485.5Z" fill="white"/>
<path fill-rule="evenodd" clip-rule="evenodd" d="M496.478 63.8612C494.262 63.8612 492.988 65.0743 492.988 67.0903V69.7783C492.988 71.7943 494.27 73.0074 496.478 73.0074C498.686 73.0074 499.969 71.7943 499.969 69.7783V67.0903C499.969 65.0743 498.695 63.8612 496.478 63.8612ZM496.522 65.3448C497.796 65.3448 498.503 65.9558 498.503 67.0903V69.7958C498.503 70.9129 497.796 71.5412 496.522 71.5412C495.248 71.5412 494.55 70.939 494.55 69.7958V67.0903C494.55 65.9645 495.248 65.3448 496.522 65.3448Z" fill="white"/>
<path d="M510.364 68.0155C510.704 68.0155 510.783 68.1289 510.783 68.4344V70.0926C510.801 70.8836 510.461 71.6407 509.858 72.1522C509.117 72.7417 508.184 73.0342 507.239 72.9726C504.979 72.9726 503.748 71.7595 503.748 69.7435V67.038C503.748 65.0482 505.023 63.8264 507.239 63.8264C508.985 63.8264 510.119 64.5158 510.599 65.8947C510.654 65.9998 510.655 66.1243 510.604 66.2308C510.552 66.3374 510.454 66.4133 510.338 66.4358L509.657 66.6715C509.36 66.7762 509.238 66.7151 509.133 66.4096C508.836 65.6428 508.056 65.1755 507.239 65.2751C505.956 65.2751 505.258 65.8947 505.258 67.0205V69.7958C505.258 70.9391 505.965 71.5413 507.239 71.5413C508.514 71.5413 509.299 70.9566 509.299 70.1013V69.4555H507.405C507.091 69.4555 506.978 69.3333 506.978 69.0278V68.4344C506.978 68.1289 507.091 68.0155 507.405 68.0155H510.364Z" fill="white"/>
<path fill-rule="evenodd" clip-rule="evenodd" d="M517.878 63.8612C515.661 63.8612 514.387 65.0743 514.387 67.0903V69.7783C514.387 71.7943 515.67 73.0074 517.878 73.0074C520.086 73.0074 521.369 71.7943 521.369 69.7783V67.0903C521.369 65.0743 520.095 63.8612 517.878 63.8612ZM517.921 65.3448C519.187 65.3448 519.894 65.9558 519.894 67.0903V69.7958C519.894 70.9129 519.195 71.5412 517.921 71.5412C516.647 71.5412 515.94 70.939 515.94 69.7958V67.0903C515.94 65.9645 516.656 65.3448 517.921 65.3448Z" fill="white"/>
<path d="M525.479 64.2976C525.479 64.1056 525.54 64.0445 525.732 64.0445H526.134C526.326 64.0445 526.369 64.1056 526.369 64.2976V72.5711C526.369 72.7631 526.369 72.8242 526.134 72.8242H525.732C525.54 72.8242 525.479 72.7631 525.479 72.5711V64.2976Z" fill="white"/>
<path fill-rule="evenodd" clip-rule="evenodd" d="M537.06 66.7849C537.06 65.2714 535.833 64.0445 534.32 64.0445H531.065C530.881 64.0445 530.812 64.1056 530.812 64.2976V72.5711C530.812 72.7631 530.881 72.8242 531.065 72.8242H531.475C531.658 72.8242 531.702 72.7631 531.702 72.5711V69.5252H534.32C535.833 69.5252 537.06 68.2983 537.06 66.7849ZM535.889 67.7099C535.549 68.2986 534.921 68.6612 534.242 68.6612H531.623V64.8561H534.242C534.921 64.8561 535.549 65.2187 535.889 65.8074C536.229 66.396 536.229 67.1213 535.889 67.7099Z" fill="white"/>
<path d="M543.876 63.87C545.26 63.7173 546.58 64.4907 547.123 65.7725C547.193 65.9121 547.123 66.0256 546.983 66.0954L546.599 66.27C546.442 66.3311 546.381 66.3223 546.285 66.1565C545.879 65.2059 544.905 64.6271 543.876 64.7252C542.401 64.7252 541.598 65.31 541.598 66.3572C541.581 67.019 542.054 67.5926 542.707 67.7012C543.176 67.8543 543.663 67.9481 544.155 67.9805C544.752 68.0123 545.34 68.1329 545.901 68.3383C546.787 68.6187 547.355 69.4819 547.262 70.4067C547.262 72.0387 546.075 73.0249 543.894 73.0249C542.419 73.1936 541.027 72.3102 540.551 70.9042C540.52 70.8412 540.518 70.7676 540.547 70.7034C540.576 70.6392 540.632 70.5913 540.699 70.5725L541.083 70.4329C541.145 70.4079 541.213 70.4097 541.273 70.4379C541.333 70.4662 541.378 70.5181 541.398 70.5812C541.798 71.593 542.808 72.2286 543.894 72.1522C545.543 72.1522 546.355 71.5762 546.355 70.4067C546.386 69.7719 545.955 69.2071 545.334 69.0714C544.882 68.9367 544.416 68.8547 543.946 68.8271L543.003 68.7049C542.708 68.6423 542.417 68.5636 542.131 68.4692C541.848 68.3838 541.584 68.2445 541.354 68.0591C540.885 67.6346 540.63 67.0239 540.656 66.3921C540.717 64.8649 541.86 63.87 543.876 63.87Z" fill="white"/>
<path d="M551.967 69.8394C552.043 71.1206 553.105 72.1202 554.388 72.1202C555.672 72.1202 556.733 71.1206 556.81 69.8394V64.2976C556.81 64.1056 556.871 64.0445 557.063 64.0445H557.465C557.657 64.0445 557.718 64.1056 557.718 64.2976V69.8307C557.718 71.8118 556.548 73.0074 554.393 73.0074C552.237 73.0074 551.068 71.8118 551.068 69.8307V64.2976C551.068 64.1056 551.129 64.0445 551.312 64.0445H551.722C551.905 64.0445 551.967 64.1056 551.967 64.2976V69.8394Z" fill="white"/>
<path d="M569.762 64.0445C569.954 64.0445 570.015 64.1056 570.015 64.2976V72.5711C570.015 72.7631 569.954 72.8242 569.762 72.8242H569.395C569.212 72.8242 569.151 72.7631 569.151 72.5711V67.5355C569.151 66.8028 569.2 66.0709 569.299 65.3449H569.247C568.974 66.0088 568.656 66.6532 568.296 67.2736L566.419 70.5813C566.372 70.6988 566.258 70.7751 566.131 70.7733H565.887C565.759 70.7739 565.642 70.6985 565.59 70.5813L563.688 67.2387C563.35 66.6272 563.058 65.9912 562.815 65.3362H562.762C562.852 66.0688 562.898 66.8061 562.902 67.5442V72.5711C562.902 72.7631 562.841 72.8242 562.649 72.8242H562.309C562.117 72.8242 562.056 72.7631 562.056 72.5711V64.2976C562.056 64.1056 562.117 64.0445 562.309 64.0445H562.623C562.77 64.0308 562.91 64.1112 562.972 64.2453L566.026 69.6737L569.064 64.2976C569.16 64.1144 569.212 64.0882 569.404 64.0882L569.762 64.0445Z" fill="white"/>
<path fill-rule="evenodd" clip-rule="evenodd" d="M464.188 56.1725V73.8976C464.188 74.1152 464.101 74.3239 463.947 74.4777C463.793 74.6316 463.585 74.718 463.367 74.718H463.175C462.722 74.718 462.355 74.3507 462.355 73.8976V56.1725C462.36 55.7228 462.726 55.3608 463.175 55.3608H463.367C463.817 55.3608 464.183 55.7228 464.188 56.1725ZM474.25 67.4085C474.423 67.2436 474.657 67.1569 474.896 67.1689L474.852 67.1863C475.106 67.1604 475.359 67.247 475.543 67.4233C475.728 67.5995 475.826 67.8478 475.812 68.1027V72.9027C475.812 73.4088 475.402 73.8191 474.896 73.8191C474.39 73.8191 473.979 73.4088 473.979 72.9027V68.0416C473.979 67.8024 474.077 67.5735 474.25 67.4085ZM476.868 69.9354C476.868 69.4534 477.259 69.0627 477.741 69.0627C477.993 69.0395 478.243 69.1273 478.426 69.3032C478.609 69.4792 478.706 69.7258 478.692 69.9791V71.0351C478.692 71.5388 478.284 71.9471 477.78 71.9471C477.276 71.9471 476.868 71.5388 476.868 71.0351V69.9354ZM469.974 77.1966V70.8867C469.701 71.0942 469.365 71.202 469.022 71.1922C468.708 71.1844 468.404 71.0809 468.15 70.8954V77.1966C468.15 77.7002 468.558 78.1086 469.062 78.1086C469.565 78.1086 469.974 77.7002 469.974 77.1966ZM466.169 73.278C465.855 73.2686 465.551 73.1652 465.296 72.9813V79.3086C465.296 79.8146 465.706 80.2249 466.212 80.2249C466.718 80.2249 467.129 79.8146 467.129 79.3086V73.0249C466.844 73.2091 466.507 73.2978 466.169 73.278ZM471.998 69.0365C471.67 69.0343 471.35 68.9306 471.082 68.7398V75.0845C471.082 75.5906 471.492 76.0009 471.998 76.0009C472.504 76.0009 472.915 75.5906 472.915 75.0845V68.7485C472.638 68.9547 472.3 69.0623 471.955 69.054L471.998 69.0365ZM466.264 72.606H466.072C465.619 72.606 465.252 72.2387 465.252 71.7856V58.2845C465.257 57.8348 465.623 57.4728 466.072 57.4729H466.264C466.714 57.4728 467.08 57.8348 467.085 58.2845V71.8031C467.085 72.2562 466.717 72.6235 466.264 72.6235V72.606ZM468.952 70.5289H469.153C469.601 70.5289 469.965 70.1655 469.965 69.7172V60.379C469.965 59.9294 469.603 59.5635 469.153 59.5587H468.952C468.736 59.5587 468.528 59.6454 468.375 59.7995C468.223 59.9536 468.139 60.1623 468.141 60.379V69.7172C468.141 70.1655 468.504 70.5289 468.952 70.5289ZM472.042 68.3907H471.859C471.409 68.3907 471.043 68.0287 471.039 67.5791V62.5521C471.024 62.3256 471.104 62.1033 471.259 61.9379C471.415 61.7725 471.632 61.6789 471.859 61.6794H472.051C472.504 61.6794 472.871 62.0467 472.871 62.4998V67.5616C472.874 67.7807 472.788 67.9916 472.634 68.1473C472.48 68.3031 472.27 68.3907 472.051 68.3907H472.042ZM474.747 66.5143H474.939H474.948C475.398 66.5096 475.76 66.1437 475.76 65.694V64.3936C475.755 63.9439 475.389 63.5819 474.939 63.582H474.747C474.298 63.5819 473.932 63.9439 473.927 64.3936V65.694C473.927 66.1471 474.294 66.5143 474.747 66.5143Z" fill="white"/>
<path d="M675.807 71.9688H678.425V84.8067H675.807V71.9688Z" fill="white"/>
<path fill-rule="evenodd" clip-rule="evenodd" d="M682.815 76.0962C681.074 76.8203 679.94 78.5223 679.944 80.4081C679.932 81.6469 680.419 82.8382 681.296 83.7134C682.173 84.5886 683.365 85.0739 684.604 85.0597C686.49 85.0597 688.19 83.9233 688.911 82.1808C689.631 80.4382 689.231 78.433 687.896 77.1009C686.562 75.7687 684.556 75.3721 682.815 76.0962ZM684.57 78.436C685.681 78.4169 686.6 79.2971 686.629 80.4081C686.658 80.9583 686.456 81.4957 686.072 81.8903C685.687 82.2849 685.155 82.5006 684.604 82.4852C683.493 82.4848 682.589 81.5887 682.58 80.4774C682.571 79.3661 683.459 78.455 684.57 78.436Z" fill="white"/>
<path fill-rule="evenodd" clip-rule="evenodd" d="M699.79 84.3703V76.0095L697.215 76.0357V76.9085C696.588 76.1438 695.637 75.72 694.65 75.7652C692.182 75.7652 690.181 77.7657 690.181 80.2336C690.181 82.7014 692.182 84.7019 694.65 84.7019C695.638 84.7513 696.591 84.3267 697.215 83.5587V84.3703C697.266 84.9097 697.063 85.442 696.667 85.8112C696.27 86.1803 695.725 86.3444 695.191 86.2554C694.371 86.3232 693.593 85.8839 693.227 85.147L690.975 86.4474C691.855 87.88 693.462 88.7015 695.138 88.5768C697.477 88.5768 699.79 87.3288 699.79 84.3703ZM695.963 78.2051C696.755 78.5624 697.251 79.3652 697.215 80.2336C697.232 80.7954 697.009 81.3379 696.604 81.727C696.198 82.1161 695.647 82.3154 695.086 82.2757C694.217 82.275 693.436 81.7462 693.112 80.9397C692.788 80.1333 692.987 79.2109 693.614 78.6094C694.241 78.0078 695.171 77.8478 695.963 78.2051Z" fill="white"/>
<path fill-rule="evenodd" clip-rule="evenodd" d="M704.171 76.0962C702.429 76.8203 701.296 78.5223 701.3 80.4081C701.288 81.6469 701.775 82.8382 702.652 83.7134C703.529 84.5886 704.721 85.0739 705.96 85.0597C707.846 85.0597 709.546 83.9233 710.267 82.1808C710.987 80.4382 710.587 78.433 709.252 77.1009C707.918 75.7687 705.912 75.3721 704.171 76.0962ZM705.926 78.436C707.037 78.4169 707.956 79.2971 707.985 80.4081H707.968C707.997 80.9552 707.797 81.4898 707.416 81.8838C707.036 82.2778 706.508 82.4956 705.96 82.4852C704.849 82.4848 703.946 81.5887 703.936 80.4774C703.927 79.3661 704.815 78.455 705.926 78.436Z" fill="white"/>
<path fill-rule="evenodd" clip-rule="evenodd" d="M713.422 72.0648C712.544 72.0648 711.833 72.776 711.833 73.6532C711.838 74.5284 712.546 75.2368 713.422 75.2416C714.299 75.2416 715.01 74.5304 715.01 73.6532C715.01 72.776 714.299 72.0648 713.422 72.0648ZM714.722 76.0096H712.104V84.8067H714.722V76.0096Z" fill="white"/>
<path fill-rule="evenodd" clip-rule="evenodd" d="M725.006 83.6074C725.794 82.7342 726.201 81.5826 726.137 80.4081C726.199 79.2351 725.791 78.0858 725.003 77.2145C724.215 76.3432 723.113 75.8216 721.94 75.7652C720.951 75.7177 719.992 76.1109 719.321 76.8387V76.0096H716.703V88.35H719.321V83.9863C719.992 84.7141 720.951 85.1072 721.94 85.0598C723.114 85.0034 724.218 84.4806 725.006 83.6074ZM721.408 78.3667C722.55 78.357 723.49 79.2655 723.519 80.4081H723.502C723.543 80.9862 723.333 81.5539 722.925 81.9654C722.517 82.3768 721.951 82.5918 721.372 82.555C720.23 82.5261 719.321 81.5864 719.331 80.4435C719.34 79.3005 720.265 78.3763 721.408 78.3667Z" fill="white"/>
<path d="M734.289 82.171C734.289 84.1957 732.543 85.0597 730.623 85.0597C729.054 85.1987 727.558 84.3695 726.844 82.9652L729.131 81.6648C729.322 82.3189 729.943 82.7513 730.623 82.7034C731.26 82.7034 731.575 82.5026 731.575 82.1535C731.575 81.1848 727.211 81.6997 727.211 78.6626C727.211 76.7426 728.834 75.7739 730.702 75.7739C732.105 75.7312 733.422 76.4528 734.14 77.659L731.845 78.8633C731.638 78.3925 731.173 78.088 730.658 78.0866C730.204 78.0866 729.925 78.2612 729.925 78.5841C729.96 79.5877 734.289 78.9157 734.289 82.171Z" fill="white"/>
<path d="M743.924 76.0095V84.8066H741.305V83.9863C740.688 84.7256 739.753 85.1247 738.792 85.0597C737.046 85.0597 735.502 83.7943 735.502 81.4117V76.0095H738.12V81.0277C738.073 81.4608 738.224 81.8919 738.53 82.2016C738.837 82.5112 739.266 82.6667 739.7 82.6248C740.66 82.6248 741.332 82.0663 741.332 80.8183V76.0095H743.924Z" fill="white"/>
<path d="M759.057 79.4132V84.8067H756.439V79.6401C756.439 78.7674 756.011 78.1914 755.173 78.1914C754.335 78.1914 753.794 78.811 753.794 79.8496V84.8067H751.176V79.6401C751.176 78.7674 750.757 78.1914 749.91 78.1914C749.064 78.1914 748.54 78.811 748.54 79.8496V84.8067H745.922V76.0095H748.54V76.8212C749.096 76.0929 749.983 75.6955 750.897 75.7652C751.815 75.7206 752.69 76.1612 753.201 76.9259C753.794 76.127 754.757 75.6887 755.749 75.7652C757.739 75.7652 759.057 77.2139 759.057 79.4132Z" fill="white"/>
<path d="M761.291 75.9572C762.371 75.9572 763.246 75.0819 763.246 74.0023C763.246 72.9226 762.371 72.0474 761.291 72.0474C760.211 72.0474 759.336 72.9226 759.336 74.0023C759.336 75.0819 760.211 75.9572 761.291 75.9572Z" fill="white"/>
<path d="M705.436 65.3099C710.492 65.3099 714.591 61.2111 714.591 56.1549C714.591 51.0988 710.492 47 705.436 47C700.38 47 696.281 51.0988 696.281 56.1549C696.281 61.2111 700.38 65.3099 705.436 65.3099Z" fill="white"/>
<path d="M725.902 65.3099C730.958 65.3099 735.057 61.2111 735.057 56.1549C735.057 51.0988 730.958 47 725.902 47C720.846 47 716.747 51.0988 716.747 56.1549C716.747 61.2111 720.846 65.3099 725.902 65.3099Z" fill="white"/>
<rect x="675.825" y="47" width="18.3011" height="18.3011" fill="white"/>
<path d="M900.177 74.238C899.658 74.2661 899.144 74.1185 898.719 73.819C898.359 73.5518 898.153 73.1242 898.17 72.6758V64.5856C898.161 64.5162 898.185 64.4467 898.234 64.3972C898.284 64.3478 898.353 64.3239 898.423 64.3325H899.889C900.055 64.3325 900.133 64.4197 900.133 64.5856V72.0474C900.133 72.379 900.282 72.5449 900.587 72.5449C900.717 72.5502 900.846 72.5355 900.971 72.5012C901.146 72.5012 901.242 72.5536 901.25 72.7107L901.381 73.8016C901.394 73.8659 901.378 73.9326 901.338 73.9845C901.298 74.0364 901.237 74.0683 901.172 74.0721C900.851 74.1782 900.515 74.2341 900.177 74.238V74.238Z" fill="white"/>
<path fill-rule="evenodd" clip-rule="evenodd" d="M903.188 73.3041C904.707 74.5597 906.904 74.5597 908.424 73.3041V73.2954C909.738 71.9246 909.738 69.7614 908.424 68.3906C906.902 67.1419 904.71 67.1419 903.188 68.3906C901.84 69.7512 901.84 71.9435 903.188 73.3041ZM907.063 72.1521C906.355 72.7937 905.275 72.7937 904.567 72.1521C903.927 71.4165 903.927 70.3219 904.567 69.5863C905.275 68.9446 906.355 68.9446 907.063 69.5863C907.703 70.3219 907.703 71.4165 907.063 72.1521Z" fill="white"/>
<path fill-rule="evenodd" clip-rule="evenodd" d="M917.728 67.9281C917.728 67.7623 917.649 67.675 917.483 67.675L916.034 67.6837C915.966 67.678 915.9 67.7032 915.852 67.7522C915.805 67.8013 915.782 67.8691 915.79 67.9368V68.0765C915.257 67.6691 914.601 67.4566 913.931 67.4743C913.012 67.4415 912.118 67.7814 911.453 68.4168C910.145 69.7699 910.145 71.9161 911.453 73.2692C912.115 73.9104 913.01 74.254 913.931 74.2205C914.583 74.239 915.221 74.0393 915.746 73.6532V74.203C915.764 74.6074 915.616 75.0015 915.336 75.2939C915.03 75.5734 914.624 75.7181 914.21 75.6954C913.871 75.7022 913.535 75.6242 913.233 75.4685C912.985 75.3345 912.796 75.1139 912.701 74.8488C912.653 74.731 912.54 74.6524 912.413 74.6481H910.946C910.711 74.6481 910.711 74.7267 910.711 74.9012C910.834 75.6163 911.248 76.2484 911.854 76.6467C912.557 77.1021 913.382 77.3306 914.219 77.3012C915.146 77.342 916.053 77.0302 916.759 76.4285C917.403 75.8646 917.758 75.0409 917.728 74.1856V67.9281ZM915.293 72.1521C914.99 72.4925 914.552 72.6811 914.097 72.667C913.637 72.6803 913.194 72.4923 912.884 72.1521C912.571 71.7927 912.406 71.3281 912.421 70.8517C912.402 70.3707 912.571 69.9011 912.893 69.5426C913.202 69.2015 913.646 69.0132 914.106 69.0277C914.557 69.0128 914.991 69.1981 915.293 69.5339C915.89 70.3046 915.89 71.3814 915.293 72.1521Z" fill="white"/>
<path fill-rule="evenodd" clip-rule="evenodd" d="M920.023 73.3041C921.545 74.5528 923.737 74.5528 925.259 73.3041V73.2954C926.574 71.9246 926.574 69.7614 925.259 68.3906C923.736 67.1453 921.546 67.1453 920.023 68.3906C918.707 69.7643 918.707 71.9304 920.023 73.3041ZM922.65 72.6321C922.183 72.6465 921.731 72.4736 921.393 72.1521C920.764 71.4124 920.764 70.326 921.393 69.5863C921.731 69.2648 922.183 69.0919 922.65 69.1063C923.113 69.0943 923.562 69.267 923.898 69.5863C924.526 70.326 924.526 71.4124 923.898 72.1521C923.562 72.4714 923.113 72.6441 922.65 72.6321Z" fill="white"/>
<path fill-rule="evenodd" clip-rule="evenodd" d="M927.729 66.1914C928.206 66.609 928.919 66.609 929.396 66.1914C929.607 65.9918 929.727 65.714 929.727 65.4234C929.727 65.1327 929.607 64.8549 929.396 64.6553C928.915 64.2488 928.21 64.2488 927.729 64.6553C927.518 64.8549 927.398 65.1327 927.398 65.4234C927.398 65.714 927.518 65.9918 927.729 66.1914ZM928.122 73.819C928.548 74.116 929.06 74.2634 929.579 74.2379C929.92 74.2347 930.259 74.1788 930.583 74.0721C930.648 74.0683 930.709 74.0364 930.749 73.9845C930.789 73.9326 930.805 73.8659 930.792 73.8016L930.661 72.7107C930.653 72.5536 930.557 72.5012 930.382 72.5012C930.254 72.5349 930.122 72.5496 929.989 72.5448C929.693 72.5448 929.544 72.379 929.544 72.0474V67.9281C929.544 67.7623 929.466 67.675 929.3 67.675H927.834C927.764 67.6664 927.695 67.6903 927.645 67.7397C927.596 67.7892 927.572 67.8587 927.581 67.9281V72.6758C927.565 73.122 927.767 73.548 928.122 73.819Z" fill="white"/>
<path fill-rule="evenodd" clip-rule="evenodd" d="M938.682 68.4081C938.012 67.7691 937.111 67.429 936.186 67.4655C935.378 67.448 934.598 67.7636 934.03 68.3383C933.73 67.7528 933.106 67.4076 932.45 67.4655C932.129 67.4596 931.81 67.5129 931.508 67.6226C931.381 67.6593 931.298 67.7793 931.307 67.9106V68.9405C931.307 69.0801 931.403 69.1499 931.595 69.1499H931.883C932.025 69.1291 932.168 69.1766 932.27 69.278C932.371 69.3795 932.419 69.5229 932.398 69.6648V76.8212C932.385 76.8891 932.407 76.9589 932.456 77.0078C932.505 77.0566 932.574 77.0783 932.642 77.0656H934.109C934.274 77.0656 934.362 76.987 934.362 76.8212V73.6707C934.892 74.0533 935.532 74.2525 936.186 74.2379C937.113 74.2752 938.015 73.9315 938.682 73.2867C939.962 71.9125 939.962 69.7822 938.682 68.4081ZM936.029 72.6666C935.574 72.6666 935.139 72.4807 934.825 72.1521C934.509 71.7803 934.344 71.304 934.362 70.8168C934.342 70.3292 934.507 69.8521 934.825 69.4815C935.139 69.1529 935.574 68.9671 936.029 68.9671C936.484 68.9671 936.919 69.1529 937.233 69.4815C937.564 69.8457 937.736 70.3258 937.713 70.8168C937.733 71.3074 937.561 71.7865 937.233 72.1521C936.919 72.4807 936.484 72.6666 936.029 72.6666Z" fill="white"/>
<path d="M943.761 74.238C942.978 74.2702 942.201 74.0827 941.518 73.6969C940.963 73.3627 940.591 72.7942 940.506 72.1521C940.506 71.9776 940.567 71.8903 940.759 71.8903H942.042C942.166 71.8952 942.278 71.9693 942.33 72.0823C942.513 72.5536 942.993 72.7892 943.761 72.7892C944.029 72.8015 944.296 72.7475 944.538 72.6321C944.708 72.5553 944.822 72.3909 944.835 72.2045C944.835 71.9776 944.695 71.8205 944.416 71.7158C944.084 71.6055 943.742 71.5323 943.395 71.4976C942.983 71.451 942.575 71.3781 942.173 71.2794C941.782 71.1909 941.426 70.9872 941.152 70.6947C940.825 70.2928 940.68 69.7733 940.751 69.2604C940.822 68.7474 941.103 68.2871 941.527 67.9892C942.156 67.5885 942.894 67.3933 943.639 67.4307C944.36 67.4063 945.074 67.5847 945.699 67.9456C946.209 68.2344 946.561 68.7378 946.659 69.3158C946.659 69.4903 946.58 69.5776 946.423 69.5776H945.131C945.02 69.5842 944.916 69.5218 944.87 69.4205C944.783 69.2138 944.621 69.0482 944.416 68.9579C944.184 68.8369 943.926 68.7769 943.665 68.7834C943.409 68.7695 943.154 68.8205 942.923 68.9318C942.757 68.9959 942.646 69.1549 942.644 69.3332C942.655 69.5782 942.825 69.7871 943.063 69.8481C943.398 69.9744 943.747 70.0623 944.102 70.1099C944.51 70.1637 944.915 70.2394 945.315 70.3369C945.706 70.4254 946.061 70.629 946.336 70.9216C946.632 71.2471 946.786 71.6776 946.763 72.1172C946.779 72.7309 946.47 73.3075 945.952 73.6358C945.3 74.0544 944.536 74.2644 943.761 74.238V74.238Z" fill="white"/>
<path d="M955.988 73.8015C955.998 73.8642 955.982 73.9281 955.945 73.979C955.907 74.03 955.85 74.0635 955.787 74.0721C955.469 74.1761 955.136 74.232 954.801 74.2379C954.127 74.3078 953.465 74.0198 953.056 73.4786C952.439 74.0087 951.642 74.2806 950.83 74.2379C950.068 74.273 949.326 73.9846 948.788 73.4437C948.254 72.8774 947.973 72.118 948.011 71.3405V67.9281C948.011 67.7623 948.09 67.675 948.256 67.675H949.722C949.888 67.675 949.966 67.7623 949.966 67.9281V71.0786C949.95 71.4712 950.084 71.855 950.342 72.1521C950.601 72.4274 950.967 72.577 951.345 72.5623C951.732 72.5792 952.109 72.4409 952.392 72.1783C952.661 71.9013 952.803 71.5253 952.785 71.1397V67.9281C952.785 67.7623 952.864 67.675 953.03 67.675H954.513C954.679 67.675 954.758 67.7623 954.758 67.9281V72.0386C954.758 72.379 954.906 72.5448 955.194 72.5448C955.329 72.5501 955.464 72.5354 955.595 72.5012C955.662 72.4824 955.734 72.4953 955.79 72.5362C955.846 72.577 955.881 72.6413 955.883 72.7106L955.988 73.8015Z" fill="white"/>
<path d="M969.855 73.8016C969.871 73.8649 969.858 73.9319 969.819 73.9842C969.78 74.0366 969.72 74.0688 969.655 74.0721C969.33 74.1776 968.992 74.2335 968.651 74.2379C968.132 74.2647 967.619 74.1173 967.194 73.819C966.82 73.5596 966.601 73.1306 966.609 72.6758V70.6248C966.627 70.2335 966.496 69.8498 966.242 69.5514C965.994 69.2752 965.636 69.1247 965.265 69.1412C964.931 69.1286 964.609 69.2701 964.392 69.5252C964.162 69.8177 964.044 70.1831 964.061 70.555V73.7754C964.061 73.9412 963.982 74.0285 963.816 74.0285H962.341C962.272 74.0371 962.202 74.0132 962.153 73.9638C962.103 73.9143 962.08 73.8448 962.088 73.7754V70.6248C962.107 70.2378 961.986 69.8568 961.748 69.5514C961.532 69.2917 961.213 69.1413 960.875 69.1412C960.515 69.1267 960.166 69.2664 959.915 69.5252C959.665 69.8083 959.537 70.1781 959.557 70.555V73.7754C959.566 73.8448 959.542 73.9143 959.493 73.9638C959.443 74.0132 959.374 74.0371 959.304 74.0285H957.882C957.716 74.0285 957.637 73.9412 957.637 73.7754V69.6648C957.658 69.5229 957.611 69.3795 957.509 69.278C957.408 69.1766 957.264 69.1291 957.122 69.1499H956.834C956.642 69.1499 956.546 69.0801 956.546 68.9405V67.9107C956.537 67.7793 956.621 67.6594 956.747 67.6227C957.049 67.5129 957.368 67.4597 957.69 67.4656C958.319 67.412 958.923 67.7242 959.243 68.2685C959.838 67.7043 960.641 67.4134 961.46 67.4656C962.257 67.4266 963.026 67.7702 963.528 68.3907C964.113 67.755 964.952 67.4154 965.815 67.4656C966.585 67.4295 967.335 67.7175 967.883 68.2597C968.419 68.825 968.7 69.5852 968.66 70.363V72.0474C968.66 72.379 968.808 72.5449 969.087 72.5449C969.223 72.5512 969.358 72.5364 969.489 72.5012C969.669 72.5012 969.765 72.571 969.777 72.7107L969.855 73.8016Z" fill="white"/>
<path fill-rule="evenodd" clip-rule="evenodd" d="M867.52 66.5405C868.844 61.2154 873.626 57.4774 879.114 57.4774C884.601 57.4774 889.383 61.2154 890.708 66.5405H889.661C887.894 66.5144 886.164 67.0424 884.712 68.0503C884.629 68.1109 884.541 68.1663 884.451 68.2161H884.328C884.238 68.1663 884.15 68.1109 884.067 68.0503C881.072 66.0365 877.156 66.0365 874.161 68.0503C874.077 68.1109 873.99 68.1663 873.899 68.2161H873.777C873.686 68.1663 873.599 68.1109 873.515 68.0503C872.064 67.0424 870.334 66.5144 868.567 66.5405H867.52ZM887.775 72.0125C888.313 71.5938 888.979 71.3748 889.661 71.3928H891.066V68.5914H889.661C888.461 68.5769 887.288 68.9503 886.318 69.6561C885.197 70.4825 883.669 70.4825 882.548 69.6561C880.51 68.2375 877.805 68.2375 875.767 69.6561C874.646 70.4825 873.117 70.4825 871.997 69.6561C871.014 68.9413 869.825 68.5674 868.61 68.5914H867.162V71.3928H868.567C869.248 71.3748 869.914 71.5938 870.452 72.0125C872.486 73.4321 875.19 73.4321 877.224 72.0125C877.762 71.5951 878.428 71.3762 879.109 71.3928C879.791 71.3733 880.457 71.5925 880.994 72.0125C883.032 73.431 885.738 73.431 887.775 72.0125ZM889.661 76.4023C888.979 76.3843 888.313 76.6033 887.775 77.022C885.738 78.4405 883.032 78.4405 880.994 77.022C880.457 76.602 879.791 76.3828 879.109 76.4023C878.428 76.3857 877.762 76.6046 877.224 77.022C875.19 78.4416 872.486 78.4416 870.452 77.022C869.914 76.6033 869.248 76.3843 868.567 76.4023H867.162V73.6009H868.61C869.825 73.5768 871.014 73.9508 871.997 74.6656C873.117 75.4919 874.646 75.4919 875.767 74.6656C877.805 73.247 880.51 73.247 882.548 74.6656C883.669 75.4919 885.197 75.4919 886.318 74.6656C887.288 73.9598 888.461 73.5863 889.661 73.6009H891.066V76.4023H889.661Z" fill="white"/>
<path fill-rule="evenodd" clip-rule="evenodd" d="M1140.03 62.1295C1139.5 62.3704 1139.17 62.9107 1139.19 63.4945L1139.21 63.5033C1139.21 63.8721 1139.37 64.2237 1139.63 64.4795C1139.9 64.7354 1140.25 64.8741 1140.62 64.8647C1141.21 64.8642 1141.73 64.5085 1141.95 63.9661C1142.17 63.4238 1142.03 62.8037 1141.61 62.3996C1141.19 61.9955 1140.56 61.8886 1140.03 62.1295ZM1108.62 62.7789H1105.82V74.1244H1108.62V62.7789ZM1114.1 65.3622C1111.48 65.3622 1109.74 67.0466 1109.74 69.8567C1109.74 72.728 1111.42 74.3688 1114.1 74.3688C1116.78 74.3688 1118.46 72.6669 1118.46 69.8567C1118.46 67.0466 1116.72 65.3622 1114.1 65.3622ZM1115.69 69.8567C1115.69 68.312 1115.09 67.4044 1114.13 67.4044C1113.17 67.4044 1112.57 68.2771 1112.57 69.8567C1112.57 71.4364 1113.17 72.3004 1114.13 72.3004C1115.09 72.3004 1115.71 71.4364 1115.71 69.8655L1115.69 69.8567ZM1122.29 74.7091H1119.58L1119.6 74.7179C1119.76 76.28 1121.31 77.3884 1123.74 77.3971C1126.41 77.3971 1128.22 76.1142 1128.22 74.0633V65.5629H1125.45V66.9704C1124.97 66.0218 1123.98 65.4358 1122.91 65.4931C1120.72 65.4931 1119.42 67.1687 1119.42 69.8568C1119.42 72.5448 1120.78 74.1069 1122.83 74.1069C1123.93 74.1874 1124.96 73.5883 1125.44 72.598V74.1506C1125.44 75.0059 1124.88 75.5819 1123.81 75.5819C1123.16 75.6645 1122.54 75.3077 1122.29 74.7091ZM1125.45 69.8567C1125.45 68.4866 1124.82 67.6226 1123.82 67.6226C1122.83 67.6226 1122.22 68.4953 1122.22 69.8567C1122.22 71.2182 1122.82 72.0211 1123.82 72.0211C1124.83 72.0211 1125.45 71.2793 1125.45 69.8567ZM1133.69 65.3622C1131.08 65.3622 1129.33 67.0466 1129.33 69.8567H1129.35C1129.35 72.728 1131.02 74.3688 1133.69 74.3688C1136.36 74.3688 1138.06 72.6669 1138.06 69.8567C1138.06 67.0466 1136.31 65.3622 1133.69 65.3622ZM1135.28 69.8567C1135.28 68.312 1134.67 67.4044 1133.72 67.4044C1132.77 67.4044 1132.17 68.2771 1132.17 69.8567C1132.17 71.4364 1132.76 72.3004 1133.72 72.3004C1134.68 72.3004 1135.3 71.4364 1135.3 69.8655L1135.28 69.8567ZM1139.19 65.5542H1142.03V74.1593H1139.24L1139.19 65.5542ZM1148.84 74.2815C1150.97 74.2815 1152.23 72.6582 1152.23 69.8567L1152.28 69.8655C1152.28 67.0553 1151.02 65.4407 1148.82 65.4582C1147.68 65.4042 1146.64 66.0673 1146.2 67.1164H1146.15V65.5804H1143.36V76.9258H1146.16V72.6844H1146.22C1146.67 73.713 1147.71 74.3506 1148.84 74.2815ZM1149.38 69.8568C1149.38 68.4953 1148.74 67.6138 1147.75 67.6138C1146.77 67.6138 1146.15 68.4866 1146.14 69.8568C1146.13 71.2269 1146.77 72.0909 1147.75 72.0909C1148.74 72.0909 1149.43 71.2793 1149.43 69.8655L1149.38 69.8568ZM1160.84 68.2422C1160.82 66.4618 1159.36 65.3534 1157.01 65.3534L1157.07 65.3622C1154.7 65.3622 1153.23 66.4531 1153.18 68.1636C1153.18 69.4815 1154.06 70.3629 1155.75 70.7207L1157.37 71.0611C1158.04 71.2007 1158.3 71.2793 1158.3 71.7418C1158.3 72.2044 1157.92 72.4662 1157.1 72.4662C1156.28 72.4662 1155.77 72.0909 1155.7 71.4538H1152.98C1153.09 73.208 1154.66 74.36 1157.06 74.36C1159.46 74.36 1161.07 73.1731 1161.07 71.4276C1161.07 70.1273 1160.37 69.4291 1158.63 69.0626L1156.83 68.696C1156.18 68.5651 1155.86 68.4255 1155.86 67.9804C1155.86 67.5353 1156.23 67.2385 1157 67.2385C1157.76 67.2385 1158.28 67.6225 1158.28 68.2422H1160.84ZM1170.45 74.1506H1167.74V72.536H1167.69C1167.37 73.6453 1166.33 74.3889 1165.18 74.3251C1164.33 74.3529 1163.5 74.0151 1162.92 73.3967C1162.33 72.7783 1162.03 71.938 1162.1 71.0873V65.5629H1164.9V70.4851C1164.9 71.4975 1165.43 72.0473 1166.31 72.0473C1166.72 72.0442 1167.11 71.8617 1167.38 71.5471C1167.65 71.2324 1167.77 70.8164 1167.71 70.4066V65.5629H1170.51L1170.45 74.1506ZM1174.53 65.5542H1171.81L1171.82 74.1593H1174.62V69.08C1174.58 68.7228 1174.69 68.3634 1174.93 68.0941C1175.17 67.8249 1175.51 67.6721 1175.87 67.6749C1176.64 67.6749 1177.07 68.1375 1177.07 69.0102V74.1593H1179.74V69.0626C1179.69 68.7094 1179.8 68.3527 1180.04 68.0859C1180.27 67.8192 1180.61 67.6691 1180.97 67.6749C1181.76 67.6749 1182.17 68.1637 1182.17 69.0364V74.1593H1184.99V68.3207C1185.05 67.5475 1184.78 66.7863 1184.24 66.2281C1183.7 65.6699 1182.95 65.3676 1182.17 65.3971C1180.99 65.3416 1179.91 66.0901 1179.56 67.2211H1179.43C1179.23 66.0873 1178.19 65.2973 1177.04 65.3971C1175.91 65.374 1174.9 66.1199 1174.59 67.2124H1174.53V65.5542Z" fill="white"/>
<path fill-rule="evenodd" clip-rule="evenodd" d="M1100.28 63.5207C1100.28 59.9656 1098.09 56.7748 1094.78 55.4851C1091.47 54.1954 1087.7 55.0713 1085.3 57.6909H1074.41V80.6786H1097.41V69.9353C1099.23 68.3025 1100.27 65.9699 1100.28 63.5207ZM1095.85 63.5207C1095.86 65.2229 1094.83 66.7594 1093.26 67.4133C1091.69 68.0671 1089.88 67.7094 1088.67 66.507C1087.47 65.3046 1087.11 63.4946 1087.76 61.9217C1088.41 60.3487 1089.94 59.3229 1091.65 59.3229C1093.97 59.3229 1095.85 61.2009 1095.85 63.5207ZM1078.83 76.2539H1092.98V72.0386C1092.54 72.1117 1092.09 72.1497 1091.65 72.152C1086.88 72.1472 1083.02 68.2857 1083.01 63.5207C1083.02 63.0495 1083.06 62.5795 1083.15 62.1156H1078.83V76.2539Z" fill="white"/>
<defs>
<filter id="filter0_bd_114_16" x="-120" y="-119" width="1680" height="365" filterUnits="userSpaceOnUse" color-interpolation-filters="sRGB">
<feFlood flood-opacity="0" result="BackgroundImageFix"/>
<feGaussianBlur in="BackgroundImageFix" stdDeviation="60"/>
<feComposite in2="SourceAlpha" operator="in" result="effect1_backgroundBlur_114_16"/>
<feColorMatrix in="SourceAlpha" type="matrix" values="0 0 0 0 0 0 0 0 0 0 0 0 0 0 0 0 0 0 127 0" result="hardAlpha"/>
<feOffset dy="-1"/>
<feComposite in2="hardAlpha" operator="out"/>
<feColorMatrix type="matrix" values="0 0 0 0 1 0 0 0 0 1 0 0 0 0 1 0 0 0 0.25 0"/>
<feBlend mode="normal" in2="effect1_backgroundBlur_114_16" result="effect2_dropShadow_114_16"/>
<feBlend mode="normal" in="SourceGraphic" in2="effect2_dropShadow_114_16" result="shape"/>
</filter>
</defs>
</svg>
