<svg width="390" height="97" viewBox="0 0 390 97" fill="none" xmlns="http://www.w3.org/2000/svg">
<g filter="url(#filter0_bd_116_21)">
<rect y="1" width="390" height="96" fill="#00100B" fill-opacity="0.6" shape-rendering="crispEdges"/>
</g>
<path fill-rule="evenodd" clip-rule="evenodd" d="M77.699 43.6604C77.2378 43.8647 76.9455 44.3271 76.9586 44.8314V44.8477C76.9555 45.1789 77.0908 45.4964 77.3319 45.7236C77.573 45.9508 77.898 46.067 78.2285 46.0443C78.7328 46.0343 79.1813 45.721 79.3643 45.2509C79.5473 44.7808 79.4287 44.2468 79.0639 43.8984C78.6991 43.55 78.1602 43.456 77.699 43.6604ZM50.4449 44.2206H48.0028V54.0951H50.4449V44.2206ZM55.2235 46.4674C52.9116 46.4674 51.4138 47.9246 51.4138 50.3668C51.4138 52.8496 52.879 54.2742 55.2235 54.2742C57.568 54.2742 59.0333 52.8089 59.0333 50.3668C59.0333 47.9246 57.5354 46.4674 55.2235 46.4674ZM56.5829 50.3667C56.5829 49.0235 56.0538 48.2339 55.2235 48.2339C54.3931 48.2339 53.8721 49.048 53.8721 50.3667C53.8721 51.6855 54.385 52.4833 55.2235 52.4833C56.062 52.4833 56.5829 51.7343 56.5829 50.3749V50.3667ZM62.2978 54.5752H59.9533V54.5833C60.0917 55.9346 61.4349 56.9034 63.5921 56.9034C65.9122 56.9034 67.4833 55.7962 67.4833 54.0135V46.6056H65.0411V47.965C64.6647 47.0653 63.7689 46.4941 62.7944 46.5323C60.922 46.5323 59.7986 48.0057 59.7986 50.3421C59.7986 52.6784 60.979 54.0379 62.7618 54.0379C63.7059 54.0892 64.5861 53.5604 64.9842 52.7028H65.033V54.0704C65.033 54.8031 64.5446 55.3078 63.6166 55.3078C63.0633 55.3822 62.5269 55.0842 62.2978 54.5752ZM65.0412 50.3589C65.0412 49.1704 64.4958 48.4215 63.6329 48.4215C62.77 48.4215 62.2409 49.1622 62.2409 50.3589C62.2409 51.5556 62.7618 52.2312 63.6329 52.2312C64.5039 52.2312 65.0412 51.5718 65.0412 50.367V50.3589ZM72.2129 46.4595C69.901 46.4595 68.4031 47.9167 68.4031 50.3588V50.367C68.4031 52.8498 69.8603 54.2663 72.2129 54.2663C74.5655 54.2663 76.0308 52.801 76.0308 50.3588C76.0308 47.9167 74.5248 46.4595 72.2129 46.4595ZM73.5723 50.3592C73.5723 49.016 73.0431 48.2264 72.2128 48.2264C71.3824 48.2264 70.9022 49.0486 70.9022 50.3755C70.9022 51.7024 71.415 52.492 72.2453 52.492C73.0757 52.492 73.5723 51.735 73.5723 50.3755V50.3592ZM76.9587 46.6224H79.4008V54.0954H76.9587V46.6224ZM85.3274 54.1931C87.1835 54.1931 88.2662 52.801 88.2662 50.3589L88.2987 50.3752C88.2987 47.933 87.1835 46.5328 85.3111 46.5003C84.3287 46.4564 83.424 47.0324 83.0481 47.9411H82.9992V46.6061H80.5571V56.4887H82.9992V52.8092H83.0481C83.4423 53.703 84.3526 54.2557 85.3274 54.1931ZM85.8236 50.3587C85.8236 49.1702 85.2782 48.4131 84.4235 48.4131C83.5687 48.4131 83.0233 49.1783 83.0151 50.3587C83.007 51.5391 83.5687 52.2961 84.4235 52.2961C85.2782 52.2961 85.8236 51.5553 85.8236 50.375V50.3587ZM95.7713 48.9503C95.7144 47.4117 94.4851 46.4511 92.4581 46.4511V46.4674C90.4393 46.4674 89.1287 47.4199 89.1124 48.8852C89.1124 50.0248 89.8776 50.7982 91.3348 51.0994L92.7431 51.4006C93.3292 51.5227 93.5571 51.6041 93.5571 51.9948C93.5571 52.3856 93.2315 52.6217 92.5151 52.6217C91.7988 52.6217 91.3592 52.296 91.2859 51.7425H88.9333C89.0391 53.2648 90.3986 54.2579 92.4744 54.2579C94.5503 54.2579 95.9586 53.2648 95.9586 51.7181C95.9586 50.5865 95.3236 49.9841 93.8339 49.6667L92.2709 49.3492C91.7255 49.2352 91.4569 49.1131 91.4569 48.7305C91.4569 48.3479 91.7581 48.0874 92.4337 48.0874C93.1094 48.0874 93.549 48.4212 93.549 48.9503H95.7713ZM104.107 54.0787H101.755V52.6867H101.706C101.44 53.6496 100.538 54.2968 99.5406 54.2415C98.7899 54.2842 98.0575 53.9994 97.5329 53.4607C97.0082 52.922 96.7429 52.1824 96.8054 51.433V46.6057H99.2475V50.8713C99.2475 51.7587 99.7034 52.2308 100.46 52.2308C100.82 52.2315 101.162 52.0772 101.399 51.8074C101.636 51.5376 101.745 51.1786 101.698 50.8225V46.6057H104.14L104.107 54.0787ZM107.649 46.6058H105.288L105.247 54.0951H107.689V49.6911C107.652 49.3814 107.749 49.0706 107.956 48.8372C108.163 48.6038 108.46 48.4701 108.772 48.47C109.439 48.47 109.806 48.8771 109.806 49.626V54.0951H112.126V49.6748C112.086 49.3689 112.18 49.0606 112.385 48.8296C112.589 48.5986 112.884 48.4674 113.192 48.47C113.876 48.47 114.242 48.8445 114.242 49.6585V54.0951H116.685V49.0073C116.733 48.337 116.495 47.6775 116.029 47.1931C115.564 46.7087 114.914 46.4449 114.242 46.4675C113.195 46.4225 112.251 47.0924 111.947 48.0956H111.898C111.736 47.095 110.832 46.3865 109.822 46.4675C108.837 46.4492 107.964 47.0983 107.697 48.0467H107.649V46.6058Z" fill="white"/>
<path fill-rule="evenodd" clip-rule="evenodd" d="M39.5449 42.0472C40.2105 42.8384 40.7588 43.7212 41.173 44.6685C41.7765 46.0496 42.0869 47.5409 42.0848 49.0481C42.0803 55.1318 37.1544 60.065 31.0706 60.0785C29.6551 60.0777 28.2532 59.8012 26.9434 59.2645C26.0091 58.8932 25.1321 58.3917 24.3384 57.7747C20.9625 55.202 19.3654 50.9183 20.2329 46.7634C21.1004 42.6085 24.2782 39.3218 28.4016 38.3148C32.5249 37.3079 36.8599 38.7599 39.5449 42.0472ZM34.742 41.0621C33.5896 40.5258 32.3337 40.2479 31.0625 40.2481L31.0707 40.2318C28.0563 40.2295 25.2509 41.7718 23.6375 44.3181C22.0242 46.8645 21.8279 50.0598 23.1174 52.7845C23.4851 52.3982 23.7117 51.8991 23.7605 51.3681C24.0565 49.3227 25.6632 47.716 27.7086 47.4199C28.8626 47.3152 29.7843 46.414 29.9147 45.2626C30.2108 43.2173 31.8175 41.6106 33.8629 41.3145C34.1655 41.2684 34.461 41.1836 34.742 41.0621ZM24.3302 54.7465C24.3628 54.7167 24.3954 54.6877 24.4279 54.6588L24.4279 54.6588C24.4931 54.6009 24.5582 54.543 24.6233 54.4779C25.3475 53.7757 25.8124 52.8489 25.9421 51.8485C25.9946 51.2862 26.2457 50.761 26.6503 50.3669C27.0396 49.9617 27.5636 49.7127 28.1237 49.6668C30.1691 49.3708 31.7758 47.7641 32.0719 45.7187C32.1071 45.1305 32.3595 44.5764 32.7801 44.1638C33.179 43.7665 33.7081 43.5265 34.2698 43.4882C35.1848 43.3623 36.0381 42.9555 36.712 42.3241C37.4794 42.9607 38.1295 43.7266 38.6332 44.5871C38.6022 44.6289 38.5667 44.6672 38.5273 44.7011C38.1388 45.1099 37.6154 45.3644 37.0539 45.4175C35.006 45.7085 33.3967 47.3177 33.1057 49.3656C32.9875 50.5211 32.0718 51.4333 30.9159 51.5473C28.8649 51.8411 27.2498 53.4462 26.9433 55.4955C26.8995 55.8933 26.7629 56.2753 26.5445 56.6107C25.7092 56.1148 24.9612 55.485 24.3302 54.7465ZM28.6203 57.5467C29.4143 57.7745 30.2364 57.8895 31.0624 57.8886V57.8479C33.7888 57.8373 36.3565 56.5648 38.0162 54.4019C39.6758 52.2389 40.2403 49.4292 39.5449 46.7931C38.9268 47.2301 38.2115 47.5095 37.4609 47.6071C36.3082 47.7247 35.3968 48.6361 35.2792 49.7888C34.9822 51.8367 33.3715 53.4442 31.3229 53.737C30.1702 53.8546 29.2589 54.766 29.1413 55.9186C29.0685 56.4886 28.8919 57.0404 28.6203 57.5467Z" fill="white"/>
<path d="M171.623 45.7714C171.904 45.7714 171.998 45.8729 171.998 46.1463V52.3323H175.177C175.45 52.3323 175.552 52.4338 175.552 52.7072V53.2539C175.552 53.5273 175.45 53.6288 175.177 53.6288H170.99C170.717 53.6288 170.607 53.5273 170.607 53.2539V46.1463C170.607 45.8729 170.717 45.7714 170.99 45.7714H171.623Z" fill="white"/>
<path fill-rule="evenodd" clip-rule="evenodd" d="M181.448 45.6076C179.465 45.6076 178.324 46.6933 178.324 48.4975V50.9032C178.324 52.7074 179.472 53.7931 181.448 53.7931C183.425 53.7931 184.573 52.7074 184.573 50.9032V48.4975C184.573 46.6933 183.432 45.6076 181.448 45.6076ZM181.487 46.9353C182.628 46.9353 183.26 47.4821 183.26 48.4974V50.9187C183.26 51.9185 182.628 52.4808 181.487 52.4808C180.347 52.4808 179.722 51.9419 179.722 50.9187V48.4974C179.722 47.4899 180.347 46.9353 181.487 46.9353Z" fill="white"/>
<path d="M193.875 49.3254C194.18 49.3254 194.25 49.4269 194.25 49.7003V51.1843C194.267 51.8923 193.962 52.5698 193.422 53.0276C192.759 53.5552 191.924 53.817 191.079 53.7618C189.056 53.7618 187.955 52.6761 187.955 50.8719V48.4506C187.955 46.6698 189.095 45.5763 191.079 45.5763C192.641 45.5763 193.656 46.1934 194.086 47.4274C194.135 47.5214 194.136 47.6329 194.09 47.7282C194.044 47.8236 193.956 47.8915 193.852 47.9117L193.242 48.1226C192.977 48.2163 192.867 48.1616 192.774 47.8883C192.508 47.2019 191.81 46.7838 191.079 46.8729C189.931 46.8729 189.306 47.4274 189.306 48.435V50.9187C189.306 51.9419 189.938 52.4809 191.079 52.4809C192.219 52.4809 192.922 51.9576 192.922 51.1921V50.6141H191.227C190.946 50.6141 190.844 50.5048 190.844 50.2314V49.7003C190.844 49.4269 190.946 49.3254 191.227 49.3254H193.875Z" fill="white"/>
<path fill-rule="evenodd" clip-rule="evenodd" d="M200.6 45.6076C198.616 45.6076 197.476 46.6933 197.476 48.4975V50.9032C197.476 52.7074 198.624 53.7931 200.6 53.7931C202.576 53.7931 203.724 52.7074 203.724 50.9032V48.4975C203.724 46.6933 202.584 45.6076 200.6 45.6076ZM200.638 46.9353C201.771 46.9353 202.404 47.4821 202.404 48.4974V50.9187C202.404 51.9185 201.779 52.4808 200.638 52.4808C199.498 52.4808 198.865 51.9419 198.865 50.9187V48.4974C198.865 47.4899 199.506 46.9353 200.638 46.9353Z" fill="white"/>
<path d="M207.403 45.9979C207.403 45.8261 207.458 45.7714 207.629 45.7714H207.989C208.16 45.7714 208.2 45.8261 208.2 45.9979V53.4023C208.2 53.5741 208.2 53.6288 207.989 53.6288H207.629C207.458 53.6288 207.403 53.5741 207.403 53.4023V45.9979Z" fill="white"/>
<path fill-rule="evenodd" clip-rule="evenodd" d="M217.767 48.2239C217.767 46.8694 216.669 45.7714 215.315 45.7714H212.402C212.238 45.7714 212.175 45.8261 212.175 45.9979V53.4023C212.175 53.5741 212.238 53.6288 212.402 53.6288H212.769C212.933 53.6288 212.972 53.5741 212.972 53.4023V50.6764H215.315C216.669 50.6764 217.767 49.5784 217.767 48.2239ZM216.719 49.0517C216.415 49.5786 215.853 49.9031 215.245 49.9031H212.902V46.4977H215.245C215.853 46.4977 216.415 46.8222 216.719 47.349C217.024 47.8758 217.024 48.5249 216.719 49.0517Z" fill="white"/>
<path d="M223.867 45.6156C225.106 45.4789 226.287 46.1711 226.773 47.3183C226.835 47.4432 226.773 47.5448 226.648 47.6073L226.304 47.7635C226.164 47.8181 226.109 47.8103 226.023 47.6619C225.66 46.8112 224.788 46.2932 223.867 46.381C222.547 46.381 221.829 46.9043 221.829 47.8416C221.813 48.4339 222.236 48.9472 222.821 49.0444C223.241 49.1814 223.676 49.2654 224.117 49.2943C224.651 49.3228 225.178 49.4307 225.679 49.6146C226.472 49.8655 226.981 50.638 226.898 51.4657C226.898 52.9262 225.836 53.8088 223.883 53.8088C222.563 53.9598 221.317 53.1692 220.892 51.9109C220.864 51.8545 220.862 51.7886 220.888 51.7312C220.914 51.6738 220.964 51.6308 221.024 51.6141L221.368 51.4891C221.423 51.4667 221.484 51.4684 221.538 51.4936C221.591 51.5189 221.632 51.5654 221.649 51.6219C222.008 52.5273 222.911 53.0962 223.883 53.0278C225.359 53.0278 226.086 52.5123 226.086 51.4657C226.114 50.8975 225.727 50.3921 225.172 50.2707C224.768 50.1501 224.351 50.0767 223.93 50.052L223.086 49.9426C222.822 49.8866 222.562 49.8162 222.305 49.7317C222.052 49.6553 221.816 49.5306 221.61 49.3646C221.191 48.9848 220.962 48.4382 220.985 47.8728C221.04 46.506 222.063 45.6156 223.867 45.6156Z" fill="white"/>
<path d="M231.108 50.9576C231.177 52.1042 232.127 52.9988 233.275 52.9988C234.424 52.9988 235.374 52.1042 235.443 50.9576V45.9979C235.443 45.8261 235.497 45.7714 235.669 45.7714H236.029C236.2 45.7714 236.255 45.8261 236.255 45.9979V50.9498C236.255 52.7228 235.208 53.7928 233.279 53.7928C231.35 53.7928 230.303 52.7228 230.303 50.9498V45.9979C230.303 45.8261 230.358 45.7714 230.522 45.7714H230.889C231.053 45.7714 231.108 45.8261 231.108 45.9979V50.9576Z" fill="white"/>
<path d="M247.034 45.7715C247.206 45.7715 247.26 45.8262 247.26 45.998V53.4024C247.26 53.5742 247.206 53.6289 247.034 53.6289H246.706C246.542 53.6289 246.487 53.5742 246.487 53.4024V48.8957C246.487 48.24 246.531 47.585 246.62 46.9353H246.573C246.329 47.5294 246.044 48.1061 245.722 48.6614L244.042 51.6216C244 51.7267 243.898 51.7951 243.784 51.7934H243.566C243.451 51.794 243.347 51.7265 243.3 51.6216L241.598 48.6302C241.295 48.0828 241.034 47.5137 240.816 46.9275H240.77C240.85 47.5832 240.891 48.243 240.895 48.9035V53.4024C240.895 53.5742 240.84 53.6289 240.668 53.6289H240.363C240.192 53.6289 240.137 53.5742 240.137 53.4024V45.998C240.137 45.8262 240.192 45.7715 240.363 45.7715H240.645C240.776 45.7592 240.901 45.8312 240.957 45.9511L243.691 50.8093L246.409 45.998C246.495 45.834 246.542 45.8105 246.713 45.8105L247.034 45.7715Z" fill="white"/>
<path fill-rule="evenodd" clip-rule="evenodd" d="M152.549 38.7264V54.5896C152.549 54.7843 152.472 54.9711 152.334 55.1088C152.197 55.2465 152.01 55.3238 151.815 55.3238H151.643C151.238 55.3238 150.909 54.9951 150.909 54.5896V38.7264C150.913 38.324 151.241 38 151.643 38H151.815C152.218 38 152.545 38.324 152.549 38.7264ZM161.555 48.7825C161.71 48.6349 161.919 48.5574 162.133 48.5681L162.094 48.5837C162.321 48.5605 162.547 48.638 162.712 48.7957C162.877 48.9535 162.965 49.1757 162.953 49.4038V53.6996C162.953 54.1525 162.586 54.5197 162.133 54.5197C161.68 54.5197 161.313 54.1525 161.313 53.6996V49.3491C161.312 49.135 161.4 48.9302 161.555 48.7825ZM163.898 51.0435C163.898 50.6122 164.247 50.2625 164.679 50.2625C164.905 50.2417 165.129 50.3203 165.292 50.4777C165.456 50.6352 165.543 50.856 165.53 51.0826V52.0277C165.53 52.4784 165.165 52.8439 164.714 52.8439C164.263 52.8439 163.898 52.4784 163.898 52.0277V51.0435ZM157.728 57.542V51.8949C157.484 52.0806 157.183 52.1771 156.876 52.1683C156.595 52.1613 156.323 52.0687 156.095 51.9027V57.542C156.095 57.9927 156.461 58.3582 156.912 58.3582C157.362 58.3582 157.728 57.9927 157.728 57.542ZM154.322 54.0351C154.041 54.0267 153.769 53.9342 153.541 53.7696V59.4322C153.541 59.8852 153.908 60.2523 154.361 60.2523C154.814 60.2523 155.181 59.8852 155.181 59.4322V53.8086C154.926 53.9735 154.625 54.0528 154.322 54.0351ZM159.54 50.239C159.246 50.237 158.959 50.1443 158.72 49.9735V55.6518C158.72 56.1047 159.087 56.4719 159.54 56.4719C159.993 56.4719 160.36 56.1047 160.36 55.6518V49.9813C160.112 50.1659 159.81 50.2621 159.501 50.2547L159.54 50.239ZM154.408 53.4336H154.236C153.831 53.4336 153.502 53.1049 153.502 52.6994V40.6165C153.506 40.2141 153.834 39.8901 154.236 39.8901H154.408C154.81 39.8901 155.138 40.2141 155.142 40.6165V52.7151C155.142 53.1205 154.813 53.4492 154.408 53.4492V53.4336ZM156.814 51.5747H156.993C157.394 51.5747 157.72 51.2495 157.72 50.8483V42.491C157.72 42.0886 157.396 41.7611 156.993 41.7568H156.814C156.62 41.7568 156.434 41.8344 156.297 41.9723C156.161 42.1103 156.085 42.297 156.087 42.491V50.8483C156.087 51.2495 156.413 51.5747 156.814 51.5747ZM159.579 49.6608H159.415C159.012 49.6608 158.685 49.3368 158.681 48.9344V44.4355C158.668 44.2328 158.739 44.0338 158.878 43.8858C159.018 43.7378 159.212 43.654 159.415 43.6545H159.587C159.992 43.6545 160.321 43.9832 160.321 44.3887V48.9188C160.323 49.1149 160.247 49.3036 160.109 49.443C159.971 49.5824 159.783 49.6608 159.587 49.6608H159.579ZM162 47.9818H162.172H162.179C162.582 47.9775 162.906 47.65 162.906 47.2476V46.0838C162.902 45.6814 162.574 45.3574 162.172 45.3574H162C161.597 45.3574 161.27 45.6814 161.266 46.0838V47.2476C161.266 47.6531 161.594 47.9818 162 47.9818Z" fill="white"/>
<path fill-rule="evenodd" clip-rule="evenodd" d="M337.95 44.2763C337.488 44.4853 337.199 44.9543 337.221 45.4609L337.236 45.4685C337.24 45.7886 337.372 46.0937 337.603 46.3157C337.833 46.5378 338.143 46.6582 338.463 46.65C338.97 46.6496 339.426 46.3409 339.615 45.8702C339.803 45.3995 339.687 44.8614 339.321 44.5107C338.954 44.16 338.412 44.0672 337.95 44.2763ZM310.69 44.8399H308.258V54.686H310.69V44.8399ZM315.446 47.0818C313.174 47.0818 311.659 48.5435 311.659 50.9823C311.659 53.4741 313.121 54.898 315.446 54.898C317.771 54.898 319.233 53.4211 319.233 50.9823C319.233 48.5435 317.718 47.0818 315.446 47.0818ZM316.825 50.9823C316.825 49.6418 316.302 48.8541 315.469 48.8541C314.636 48.8541 314.121 49.6115 314.121 50.9823C314.121 52.3532 314.636 53.103 315.469 53.103C316.302 53.103 316.84 52.3532 316.84 50.9899L316.825 50.9823ZM322.55 55.1938H320.203L320.218 55.2014C320.354 56.5571 321.702 57.519 323.808 57.5266C326.125 57.5266 327.701 56.4132 327.701 54.6334V47.2564H325.292V48.4779C324.881 47.6546 324.017 47.1461 323.088 47.1958C321.187 47.1958 320.059 48.65 320.059 50.9827C320.059 53.3155 321.24 54.6712 323.02 54.6712C323.973 54.741 324.871 54.2212 325.285 53.3617V54.7091C325.285 55.4513 324.8 55.9512 323.868 55.9512C323.309 56.0229 322.77 55.7133 322.55 55.1938ZM325.292 50.9822C325.292 49.7931 324.747 49.0433 323.883 49.0433C323.02 49.0433 322.49 49.8007 322.49 50.9822C322.49 52.1637 323.012 52.8605 323.883 52.8605C324.754 52.8605 325.292 52.2168 325.292 50.9822ZM332.449 47.0818C330.177 47.0818 328.662 48.5435 328.662 50.9823H328.678C328.678 53.4741 330.132 54.898 332.449 54.898C334.767 54.898 336.236 53.4211 336.236 50.9823C336.236 48.5435 334.722 47.0818 332.449 47.0818ZM333.828 50.9823C333.828 49.6418 333.298 48.8541 332.472 48.8541C331.647 48.8541 331.124 49.6115 331.124 50.9823C331.124 52.3532 331.639 53.103 332.472 53.103C333.305 53.103 333.843 52.3532 333.843 50.9899L333.828 50.9823ZM337.221 47.2488H339.683V54.7167H337.259L337.221 47.2488ZM345.59 54.8227C347.446 54.8227 348.536 53.4139 348.536 50.9827L348.582 50.9903C348.582 48.5515 347.484 47.1503 345.575 47.1655C344.59 47.1186 343.682 47.6941 343.303 48.6045H343.257V47.2715H340.841V57.1176H343.273V53.4366H343.318C343.71 54.3293 344.617 54.8827 345.59 54.8227ZM346.06 50.9827C346.06 49.8012 345.507 49.0362 344.651 49.0362C343.795 49.0362 343.257 49.7936 343.25 50.9827C343.242 52.1718 343.795 52.9216 344.651 52.9216C345.507 52.9216 346.105 52.2172 346.105 50.9903L346.06 50.9827ZM356.004 49.5808C355.989 48.0357 354.724 47.0738 352.687 47.0738L352.732 47.0814C350.68 47.0814 349.407 48.0281 349.362 49.5126C349.362 50.6563 350.127 51.4212 351.589 51.7318L352.997 52.0272C353.581 52.1483 353.808 52.2165 353.808 52.6179C353.808 53.0193 353.475 53.2466 352.763 53.2466C352.051 53.2466 351.611 52.9209 351.543 52.368H349.188C349.286 53.8903 350.642 54.8901 352.725 54.8901C354.808 54.8901 356.209 53.86 356.209 52.3453C356.209 51.2167 355.603 50.6108 354.088 50.2927L352.528 49.9746C351.967 49.861 351.687 49.7398 351.687 49.3536C351.687 48.9673 352.005 48.7098 352.672 48.7098C353.338 48.7098 353.785 49.043 353.785 49.5808H356.004ZM364.351 54.7087H361.995V53.3075H361.95C361.678 54.2702 360.775 54.9154 359.776 54.8601C359.036 54.8842 358.32 54.5911 357.81 54.0544C357.299 53.5177 357.042 52.7885 357.103 52.0502V47.2559H359.534V51.5276C359.534 52.4062 359.996 52.8833 360.753 52.8833C361.113 52.8806 361.453 52.7223 361.687 52.4492C361.921 52.1761 362.025 51.8151 361.973 51.4595V47.2559H364.396L364.351 54.7087ZM367.888 47.2484H365.525L365.54 54.7163H367.971V50.3083C367.932 49.9983 368.028 49.6864 368.236 49.4527C368.443 49.219 368.742 49.0864 369.054 49.0889C369.721 49.0889 370.092 49.4903 370.092 50.2477V54.7163H372.409V50.2931C372.367 49.9866 372.461 49.6771 372.666 49.4456C372.872 49.2141 373.168 49.0838 373.477 49.0889C374.166 49.0889 374.522 49.513 374.522 50.2704V54.7163H376.969V49.6494C377.019 48.9783 376.78 48.3177 376.313 47.8333C375.846 47.3488 375.195 47.0865 374.522 47.1121C373.494 47.064 372.561 47.7135 372.25 48.6951H372.144C371.964 47.7111 371.065 47.0255 370.069 47.1121C369.084 47.092 368.209 47.7394 367.941 48.6875H367.888V47.2484Z" fill="white"/>
<path fill-rule="evenodd" clip-rule="evenodd" d="M303.449 45.4837C303.449 42.3984 301.556 39.6292 298.681 38.51C295.805 37.3908 292.538 38.1509 290.452 40.4243H281V60.3739H300.957V51.0505C302.541 49.6335 303.448 47.6091 303.449 45.4837ZM299.609 45.4832C299.612 46.9604 298.725 48.2939 297.361 48.8613C295.997 49.4287 294.425 49.1183 293.38 48.0748C292.334 47.0313 292.02 45.4605 292.585 44.0955C293.15 42.7304 294.481 41.8401 295.958 41.8401C297.972 41.8401 299.605 43.4699 299.609 45.4832ZM284.84 56.5338H297.117V52.8756C296.734 52.9391 296.347 52.972 295.959 52.974C291.823 52.9699 288.472 49.6187 288.468 45.4835C288.471 45.0745 288.509 44.6666 288.582 44.2641H284.84V56.5338Z" fill="white"/>
<defs>
<filter id="filter0_bd_116_21" x="-120" y="-119" width="630" height="336" filterUnits="userSpaceOnUse" color-interpolation-filters="sRGB">
<feFlood flood-opacity="0" result="BackgroundImageFix"/>
<feGaussianBlur in="BackgroundImageFix" stdDeviation="60"/>
<feComposite in2="SourceAlpha" operator="in" result="effect1_backgroundBlur_116_21"/>
<feColorMatrix in="SourceAlpha" type="matrix" values="0 0 0 0 0 0 0 0 0 0 0 0 0 0 0 0 0 0 127 0" result="hardAlpha"/>
<feOffset dy="-1"/>
<feComposite in2="hardAlpha" operator="out"/>
<feColorMatrix type="matrix" values="0 0 0 0 1 0 0 0 0 1 0 0 0 0 1 0 0 0 0.25 0"/>
<feBlend mode="normal" in2="effect1_backgroundBlur_116_21" result="effect2_dropShadow_116_21"/>
<feBlend mode="normal" in="SourceGraphic" in2="effect2_dropShadow_116_21" result="shape"/>
</filter>
</defs>
</svg>
