<svg width="1438" height="420" viewBox="0 0 1438 420" fill="none" xmlns="http://www.w3.org/2000/svg">
<path style="mix-blend-mode:screen" d="M457.962 393.297C457.076 379.768 443.957 369.429 428.69 370.214C413.422 370.999 401.755 382.624 402.641 396.169C403.527 409.715 416.646 420.037 431.913 419.252C447.199 418.467 458.848 406.842 457.962 393.297Z" fill="url(#paint0_radial_1_1906)"/>
<path opacity="0.06" d="M433.629 396.036C432.479 397.221 430.462 397.372 429.105 396.353C427.767 395.334 427.597 393.547 428.747 392.344C429.896 391.158 538.22 284.063 538.277 284.097C538.71 284.414 434.778 394.85 433.629 396.036V396.036Z" fill="white"/>
<path opacity="0.12" d="M433.534 395.969C432.422 397.122 430.481 397.255 429.18 396.27C427.879 395.284 427.729 393.564 428.841 392.411C429.953 391.259 531.114 291.312 531.208 291.362C531.661 291.696 434.665 394.817 433.553 395.969H433.534Z" fill="white"/>
<path opacity="0.19" d="M433.44 395.902C432.365 397.005 430.499 397.138 429.237 396.203C427.993 395.251 427.842 393.597 428.916 392.478C429.991 391.376 523.989 298.544 524.121 298.645C524.592 298.995 434.514 394.8 433.459 395.919L433.44 395.902Z" fill="white"/>
<path opacity="0.25" d="M433.365 395.835C432.347 396.904 430.537 397.021 429.331 396.119C428.125 395.217 427.993 393.614 429.01 392.545C430.028 391.476 516.883 305.793 517.053 305.91C517.524 306.261 434.401 394.766 433.365 395.835V395.835Z" fill="white"/>
<path opacity="0.31" d="M433.27 395.768C432.29 396.787 430.556 396.921 429.387 396.036C428.238 395.167 428.106 393.63 429.086 392.595C430.066 391.576 509.758 313.025 509.966 313.175C510.456 313.543 434.25 394.733 433.27 395.768V395.768Z" fill="white"/>
<path opacity="0.38" d="M433.176 395.702C432.234 396.687 430.575 396.804 429.463 395.969C428.351 395.134 428.219 393.664 429.18 392.678C430.122 391.693 502.653 320.291 502.898 320.458C503.388 320.842 434.137 394.733 433.195 395.702H433.176Z" fill="white"/>
<path opacity="0.44" d="M433.101 395.635C432.196 396.57 430.613 396.687 429.557 395.885C428.502 395.084 428.37 393.681 429.274 392.745C430.179 391.81 495.547 327.523 495.829 327.74C496.338 328.124 434.005 394.716 433.101 395.651V395.635Z" fill="white"/>
<path opacity="0.5" d="M433.006 395.568C432.139 396.47 430.631 396.57 429.614 395.802C428.596 395.034 428.483 393.697 429.35 392.795C430.217 391.893 488.422 334.755 488.742 334.989C489.27 335.39 433.873 394.666 433.006 395.551V395.568Z" fill="white"/>
<path opacity="0.56" d="M432.931 395.501C432.102 396.353 430.669 396.453 429.708 395.735C428.747 395 428.633 393.731 429.463 392.879C430.292 392.027 481.335 342.021 481.693 342.288C482.239 342.689 433.779 394.666 432.95 395.518L432.931 395.501Z" fill="white"/>
<path opacity="0.62" d="M432.837 395.434C432.064 396.236 430.688 396.336 429.764 395.652C428.86 394.967 428.747 393.747 429.519 392.929C430.292 392.127 474.191 349.252 474.587 349.536C475.133 349.954 433.61 394.616 432.837 395.434V395.434Z" fill="white"/>
<path opacity="0.69" d="M432.742 395.367C432.007 396.136 430.707 396.219 429.84 395.568C428.973 394.917 428.878 393.764 429.614 392.996C430.349 392.227 467.085 356.485 467.518 356.819C468.084 357.236 433.496 394.599 432.742 395.367V395.367Z" fill="white"/>
<path opacity="0.75" d="M432.667 395.301C431.97 396.019 430.744 396.102 429.934 395.501C429.123 394.883 429.029 393.797 429.708 393.079C430.405 392.361 459.979 363.75 460.45 364.101C461.034 364.535 433.364 394.582 432.667 395.317V395.301Z" fill="white"/>
<path opacity="0.81" d="M432.573 395.234C431.913 395.919 430.763 396.002 429.991 395.418C429.218 394.833 429.124 393.814 429.783 393.129C430.443 392.445 452.854 370.982 453.363 371.366C453.947 371.817 433.214 394.566 432.573 395.234V395.234Z" fill="white"/>
<path opacity="0.88" d="M432.479 395.184C431.857 395.819 430.782 395.902 430.066 395.351C429.35 394.8 429.255 393.848 429.877 393.213C430.499 392.578 445.748 378.248 446.295 378.649C446.898 379.1 433.101 394.549 432.479 395.184Z" fill="white"/>
<path opacity="0.94" d="M432.403 395.117C431.838 395.718 430.82 395.785 430.141 395.267C429.463 394.766 429.387 393.864 429.972 393.263C430.537 392.662 438.642 385.48 439.226 385.914C439.83 386.382 432.987 394.516 432.403 395.1V395.117Z" fill="white"/>
<path d="M432.309 395.05C431.781 395.601 430.839 395.668 430.217 395.2C429.595 394.733 429.519 393.898 430.047 393.347C430.575 392.795 431.517 392.729 432.139 393.196C432.761 393.664 432.837 394.499 432.309 395.05Z" fill="white"/>
<g opacity="0.5">
<path style="mix-blend-mode:screen" d="M1362.18 354.873C1361.41 343.124 1350.03 334.161 1336.77 334.843C1323.51 335.525 1313.39 345.61 1314.16 357.359C1314.93 369.109 1326.31 378.072 1339.57 377.39C1352.83 376.708 1362.95 366.623 1362.18 354.873Z" fill="url(#paint1_radial_1_1906)"/>
<path opacity="0.06" d="M1341.07 357.239C1340.07 358.282 1338.3 358.402 1337.15 357.52C1335.97 356.638 1335.84 355.074 1336.83 354.051C1337.83 353.009 1431.82 260.095 1431.87 260.135C1432.25 260.416 1342.08 356.217 1341.09 357.259L1341.07 357.239Z" fill="white"/>
<path opacity="0.12" d="M1341 357.179C1340.05 358.182 1338.35 358.302 1337.22 357.44C1336.09 356.578 1335.95 355.094 1336.92 354.091C1337.9 353.089 1425.67 266.371 1425.74 266.411C1426.12 266.691 1341.97 356.177 1341 357.179Z" fill="white"/>
<path opacity="0.19" d="M1340.91 357.139C1339.98 358.101 1338.35 358.222 1337.26 357.4C1336.18 356.578 1336.04 355.134 1336.97 354.171C1337.9 353.209 1419.47 272.666 1419.56 272.747C1419.97 273.047 1341.81 356.177 1340.88 357.139H1340.91Z" fill="white"/>
<path opacity="0.25" d="M1340.84 357.079C1339.96 358.001 1338.37 358.121 1337.33 357.319C1336.29 356.537 1336.16 355.134 1337.06 354.212C1337.94 353.289 1413.31 278.942 1413.45 279.043C1413.86 279.343 1341.74 356.136 1340.84 357.059V357.079Z" fill="white"/>
<path opacity="0.31" d="M1340.77 357.019C1339.91 357.901 1338.42 358.021 1337.42 357.259C1336.43 356.497 1336.29 355.174 1337.15 354.272C1338.01 353.39 1407.16 285.238 1407.32 285.358C1407.75 285.679 1341.63 356.116 1340.77 357.019Z" fill="white"/>
<path opacity="0.38" d="M1340.68 356.958C1339.87 357.801 1338.42 357.901 1337.47 357.179C1336.52 356.457 1336.4 355.174 1337.22 354.332C1338.03 353.49 1400.96 291.514 1401.16 291.674C1401.59 291.995 1341.5 356.116 1340.68 356.958Z" fill="white"/>
<path opacity="0.44" d="M1340.61 356.898C1339.82 357.72 1338.44 357.801 1337.54 357.119C1336.61 356.417 1336.52 355.194 1337.29 354.392C1338.08 353.57 1394.78 297.81 1395.03 297.99C1395.48 298.331 1341.4 356.096 1340.61 356.918V356.898Z" fill="white"/>
<path opacity="0.5" d="M1340.54 356.838C1339.8 357.62 1338.49 357.7 1337.6 357.039C1336.72 356.377 1336.63 355.214 1337.38 354.432C1338.12 353.65 1388.63 304.086 1388.9 304.286C1389.35 304.627 1341.29 356.056 1340.54 356.838Z" fill="white"/>
<path opacity="0.56" d="M1340.45 356.778C1339.75 357.52 1338.49 357.6 1337.65 356.979C1336.81 356.357 1336.72 355.234 1337.42 354.492C1338.12 353.75 1382.43 310.361 1382.74 310.602C1383.22 310.943 1341.16 356.036 1340.45 356.778V356.778Z" fill="white"/>
<path opacity="0.62" d="M1340.39 356.738C1339.71 357.44 1338.51 357.52 1337.74 356.918C1336.95 356.317 1336.86 355.274 1337.54 354.572C1338.21 353.871 1376.3 316.677 1376.64 316.918C1377.11 317.279 1341.09 356.036 1340.41 356.738H1340.39Z" fill="white"/>
<path opacity="0.69" d="M1340.3 356.678C1339.66 357.339 1338.53 357.42 1337.78 356.858C1337.04 356.297 1336.95 355.294 1337.58 354.633C1338.21 353.971 1370.1 322.953 1370.46 323.234C1370.93 323.595 1340.93 356.016 1340.3 356.678V356.678Z" fill="white"/>
<path opacity="0.75" d="M1340.23 356.618C1339.62 357.239 1338.55 357.319 1337.85 356.778C1337.15 356.237 1337.06 355.294 1337.67 354.673C1338.28 354.051 1363.94 329.229 1364.35 329.53C1364.85 329.91 1340.84 355.976 1340.25 356.618H1340.23Z" fill="white"/>
<path opacity="0.81" d="M1340.16 356.558C1339.59 357.139 1338.6 357.219 1337.92 356.718C1337.26 356.217 1337.17 355.334 1337.74 354.733C1338.3 354.151 1357.76 335.505 1358.19 335.845C1358.69 336.226 1340.73 355.976 1340.16 356.558V356.558Z" fill="white"/>
<path opacity="0.88" d="M1340.09 356.497C1339.55 357.059 1338.62 357.119 1337.99 356.638C1337.35 356.156 1337.29 355.334 1337.83 354.773C1338.37 354.212 1351.61 341.78 1352.06 342.141C1352.58 342.542 1340.61 355.936 1340.09 356.477V356.497Z" fill="white"/>
<path opacity="0.94" d="M1340 356.437C1339.5 356.959 1338.62 357.019 1338.06 356.578C1337.47 356.136 1337.4 355.354 1337.9 354.853C1338.4 354.332 1345.43 348.096 1345.93 348.477C1346.47 348.878 1340.5 355.936 1340 356.457V356.437Z" fill="white"/>
<path d="M1339.93 356.377C1339.48 356.858 1338.67 356.918 1338.12 356.497C1337.58 356.096 1337.51 355.374 1337.99 354.893C1338.44 354.412 1339.26 354.352 1339.8 354.773C1340.34 355.174 1340.41 355.896 1339.93 356.377Z" fill="white"/>
</g>
<g opacity="0.5">
<path style="mix-blend-mode:screen" d="M1210.7 157.247C1210.2 149.468 1202.64 143.533 1193.86 143.974C1185.09 144.435 1178.39 151.112 1178.89 158.891C1179.41 166.671 1186.94 172.606 1195.72 172.165C1204.5 171.704 1211.2 165.027 1210.7 157.247Z" fill="url(#paint2_radial_1_1906)"/>
<path opacity="0.06" d="M1196.72 158.811C1196.06 159.493 1194.88 159.573 1194.11 158.992C1193.34 158.41 1193.25 157.368 1193.91 156.686C1194.57 156.004 1256.86 94.4294 1256.88 94.4494C1257.13 94.6299 1197.39 158.13 1196.72 158.811V158.811Z" fill="white"/>
<path opacity="0.12" d="M1196.67 158.791C1196.04 159.453 1194.91 159.533 1194.16 158.972C1193.41 158.41 1193.32 157.408 1193.96 156.746C1194.59 156.084 1252.76 98.6199 1252.81 98.66C1253.08 98.8605 1197.3 158.13 1196.67 158.811V158.791Z" fill="white"/>
<path opacity="0.19" d="M1196.62 158.751C1196.01 159.393 1194.93 159.473 1194.2 158.912C1193.48 158.37 1193.39 157.408 1194.02 156.766C1194.63 156.125 1248.69 102.77 1248.76 102.81C1249.03 103.011 1197.26 158.089 1196.62 158.731V158.751Z" fill="white"/>
<path opacity="0.25" d="M1196.56 158.711C1195.97 159.333 1194.93 159.393 1194.23 158.871C1193.52 158.35 1193.46 157.428 1194.05 156.806C1194.63 156.185 1244.57 106.941 1244.66 107.001C1244.93 107.201 1197.15 158.089 1196.56 158.711V158.711Z" fill="white"/>
<path opacity="0.31" d="M1196.51 158.671C1195.95 159.252 1194.95 159.333 1194.29 158.831C1193.64 158.33 1193.55 157.448 1194.11 156.866C1194.68 156.285 1240.5 111.111 1240.61 111.212C1240.88 111.432 1197.08 158.11 1196.51 158.691V158.671Z" fill="white"/>
<path opacity="0.38" d="M1196.47 158.631C1195.92 159.192 1194.97 159.252 1194.34 158.771C1193.71 158.29 1193.64 157.448 1194.16 156.886C1194.7 156.325 1236.4 115.262 1236.54 115.362C1236.83 115.583 1197.01 158.069 1196.47 158.631V158.631Z" fill="white"/>
<path opacity="0.44" d="M1196.42 158.591C1195.9 159.132 1195 159.192 1194.38 158.731C1193.77 158.27 1193.71 157.468 1194.23 156.927C1194.75 156.385 1232.33 119.432 1232.49 119.553C1232.78 119.773 1196.94 158.049 1196.44 158.591H1196.42Z" fill="white"/>
<path opacity="0.5" d="M1196.38 158.551C1195.88 159.072 1195 159.132 1194.43 158.691C1193.84 158.25 1193.77 157.488 1194.27 156.967C1194.77 156.445 1228.24 123.603 1228.42 123.743C1228.71 123.964 1196.87 158.049 1196.38 158.571V158.551Z" fill="white"/>
<path opacity="0.56" d="M1196.31 158.511C1195.83 158.992 1195 159.052 1194.45 158.631C1193.91 158.21 1193.84 157.468 1194.32 156.987C1194.79 156.506 1224.14 127.753 1224.34 127.894C1224.66 128.134 1196.78 158.009 1196.33 158.491L1196.31 158.511Z" fill="white"/>
<path opacity="0.62" d="M1196.26 158.47C1195.81 158.932 1195.02 158.992 1194.5 158.591C1193.98 158.19 1193.91 157.488 1194.36 157.027C1194.81 156.566 1220.04 131.904 1220.27 132.084C1220.59 132.325 1196.72 158.009 1196.26 158.47V158.47Z" fill="white"/>
<path opacity="0.69" d="M1196.22 158.45C1195.79 158.892 1195.04 158.952 1194.54 158.571C1194.05 158.19 1193.98 157.528 1194.41 157.087C1194.84 156.646 1215.95 136.094 1216.2 136.295C1216.51 136.535 1196.62 158.009 1196.22 158.45Z" fill="white"/>
<path opacity="0.75" d="M1196.17 158.41C1195.77 158.831 1195.06 158.871 1194.59 158.531C1194.11 158.17 1194.07 157.548 1194.45 157.127C1194.86 156.706 1211.85 140.265 1212.12 140.465C1212.46 140.706 1196.56 157.989 1196.15 158.41H1196.17Z" fill="white"/>
<path opacity="0.81" d="M1196.1 158.37C1195.72 158.771 1195.06 158.811 1194.61 158.47C1194.18 158.13 1194.11 157.548 1194.5 157.147C1194.88 156.766 1207.76 144.415 1208.05 144.636C1208.39 144.896 1196.47 157.969 1196.1 158.35V158.37Z" fill="white"/>
<path opacity="0.88" d="M1196.06 158.33C1195.7 158.691 1195.09 158.731 1194.66 158.43C1194.25 158.11 1194.2 157.568 1194.54 157.207C1194.91 156.846 1203.66 148.606 1203.98 148.846C1204.32 149.107 1196.4 157.989 1196.04 158.35L1196.06 158.33Z" fill="white"/>
<path opacity="0.94" d="M1196.01 158.29C1195.67 158.631 1195.11 158.671 1194.72 158.39C1194.34 158.089 1194.29 157.588 1194.61 157.247C1194.95 156.907 1199.61 152.776 1199.93 153.017C1200.29 153.277 1196.33 157.969 1196.01 158.31V158.29Z" fill="white"/>
<path d="M1195.97 158.25C1195.65 158.571 1195.13 158.611 1194.77 158.33C1194.41 158.069 1194.36 157.588 1194.68 157.267C1195 156.947 1195.54 156.907 1195.88 157.187C1196.24 157.448 1196.29 157.929 1195.97 158.25Z" fill="white"/>
</g>
<g opacity="0.5">
<path style="mix-blend-mode:screen" d="M66.4674 139.868C65.404 123.627 49.6555 111.216 31.3275 112.158C12.9995 113.121 -1.00671 127.056 0.0567689 143.316C1.12024 159.577 16.8687 171.969 35.1967 171.026C53.5473 170.084 67.5309 156.129 66.4674 139.868Z" fill="url(#paint3_radial_1_1906)"/>
<path opacity="0.06" d="M37.2333 143.156C35.853 144.58 33.4319 144.76 31.8028 143.537C30.1962 142.314 29.9926 140.169 31.3729 138.725C32.7531 137.301 162.814 8.73797 162.859 8.77807C163.38 9.17908 38.6135 141.732 37.2333 143.156Z" fill="white"/>
<path opacity="0.12" d="M37.1426 143.076C35.8076 144.459 33.477 144.62 31.9157 143.437C30.3545 142.254 30.1735 140.189 31.5085 138.805C32.8435 137.422 154.283 17.4198 154.396 17.5C154.939 17.901 38.5002 141.692 37.1652 143.076H37.1426Z" fill="white"/>
<path opacity="0.19" d="M37.0295 142.996C35.7398 144.319 33.4997 144.479 31.9837 143.357C30.4903 142.214 30.3093 140.229 31.5764 138.885C32.8661 137.562 145.708 26.1217 145.866 26.242C146.409 26.663 38.2966 141.672 37.0295 143.016V142.996Z" fill="white"/>
<path opacity="0.25" d="M36.9164 142.915C35.6945 144.199 33.5223 144.339 32.0742 143.256C30.626 142.174 30.4676 140.249 31.6895 138.965C32.934 137.682 137.2 34.8236 137.381 34.9639C137.947 35.385 38.1609 141.632 36.9164 142.915Z" fill="white"/>
<path opacity="0.31" d="M36.8258 142.835C35.6492 144.058 33.5675 144.199 32.1647 143.156C30.7844 142.113 30.626 140.269 31.8026 139.026C32.9792 137.803 128.647 43.5054 128.896 43.6859C129.484 44.127 38.0025 141.612 36.8258 142.835V142.835Z" fill="white"/>
<path opacity="0.38" d="M36.7127 142.755C35.5813 143.938 33.5902 144.078 32.2552 143.076C30.9202 142.073 30.7618 140.309 31.9157 139.126C33.0471 137.943 120.116 52.2274 120.41 52.4279C120.999 52.889 37.8667 141.592 36.7353 142.755H36.7127Z" fill="white"/>
<path opacity="0.44" d="M36.6222 142.675C35.5361 143.798 33.6354 143.938 32.3683 142.976C31.1012 142.013 30.9428 140.329 32.0289 139.206C33.115 138.083 111.586 60.9091 111.925 61.1698C112.536 61.631 37.7083 141.572 36.6222 142.695V142.675Z" fill="white"/>
<path opacity="0.5" d="M36.5091 142.595C35.4683 143.677 33.6581 143.798 32.4362 142.875C31.2144 141.953 31.0786 140.349 32.1194 139.266C33.1603 138.184 103.033 69.591 103.418 69.8717C104.051 70.3529 37.55 141.512 36.5091 142.575V142.595Z" fill="white"/>
<path opacity="0.56" d="M36.3959 142.514C35.423 143.537 33.6807 143.657 32.5267 142.795C31.3727 141.913 31.237 140.389 32.2326 139.366C33.2281 138.344 94.5024 78.3129 94.9324 78.6338C95.5885 79.115 37.4142 141.512 36.4186 142.534L36.3959 142.514Z" fill="white"/>
<path opacity="0.62" d="M36.3054 142.434C35.3777 143.397 33.7259 143.517 32.6172 142.695C31.5311 141.873 31.3953 140.409 32.3231 139.427C33.2508 138.464 85.9494 86.9948 86.4246 87.3356C87.0807 87.8369 37.2331 141.452 36.3054 142.434V142.434Z" fill="white"/>
<path opacity="0.69" d="M36.1923 142.354C35.3098 143.276 33.7486 143.377 32.7077 142.595C31.6669 141.813 31.5537 140.429 32.4362 139.507C33.3186 138.585 77.4189 95.6766 77.9394 96.0776C78.6182 96.5789 37.0974 141.432 36.1923 142.354V142.354Z" fill="white"/>
<path opacity="0.75" d="M36.0791 142.274C35.2419 143.136 33.7712 143.256 32.7982 142.514C31.8252 141.773 31.7121 140.469 32.5493 139.607C33.3865 138.745 68.8885 104.399 69.4542 104.82C70.133 105.341 36.939 141.412 36.1018 142.294L36.0791 142.274Z" fill="white"/>
<path opacity="0.81" d="M35.9887 142.194C35.1967 143.016 33.8165 143.116 32.8888 142.414C31.961 141.712 31.8479 140.489 32.6399 139.667C33.4318 138.845 60.3355 113.08 60.9464 113.542C61.6479 114.083 36.7806 141.392 35.9887 142.194V142.194Z" fill="white"/>
<path opacity="0.88" d="M35.8755 142.113C35.1288 142.875 33.8391 142.976 32.9792 142.314C32.1194 141.652 32.0063 140.509 32.753 139.747C33.4997 138.986 51.805 121.782 52.4612 122.263C53.1853 122.805 36.6222 141.352 35.8755 142.113V142.113Z" fill="white"/>
<path opacity="0.94" d="M35.7624 142.033C35.0836 142.755 33.8617 142.835 33.0471 142.214C32.2326 141.612 32.142 140.529 32.8435 139.808C33.5223 139.086 43.252 130.444 43.9534 130.985C44.7001 131.547 36.4638 141.311 35.7624 142.013V142.033Z" fill="white"/>
<path d="M35.6719 141.953C35.0383 142.615 33.907 142.695 33.1603 142.133C32.4136 141.572 32.3231 140.57 32.9566 139.908C33.5902 139.246 34.7215 139.166 35.4682 139.727C36.2149 140.289 36.3054 141.291 35.6719 141.953Z" fill="white"/>
</g>
<defs>
<radialGradient id="paint0_radial_1_1906" cx="0" cy="0" r="1" gradientUnits="userSpaceOnUse" gradientTransform="translate(430.235 394.813) rotate(-2.96038) scale(27.6975 24.5614)">
<stop stop-color="white" stop-opacity="0.99"/>
<stop offset="0.08" stop-color="white" stop-opacity="0.78"/>
<stop offset="0.17" stop-color="white" stop-opacity="0.6"/>
<stop offset="0.26" stop-color="white" stop-opacity="0.44"/>
<stop offset="0.35" stop-color="white" stop-opacity="0.3"/>
<stop offset="0.45" stop-color="white" stop-opacity="0.19"/>
<stop offset="0.55" stop-color="white" stop-opacity="0.11"/>
<stop offset="0.67" stop-color="white" stop-opacity="0.05"/>
<stop offset="0.8" stop-color="white" stop-opacity="0.01"/>
<stop offset="1" stop-color="white" stop-opacity="0"/>
</radialGradient>
<radialGradient id="paint1_radial_1_1906" cx="0" cy="0" r="1" gradientUnits="userSpaceOnUse" gradientTransform="translate(1338.1 356.176) rotate(-2.96037) scale(24.0439 21.3214)">
<stop stop-color="white" stop-opacity="0.99"/>
<stop offset="0.08" stop-color="white" stop-opacity="0.78"/>
<stop offset="0.17" stop-color="white" stop-opacity="0.6"/>
<stop offset="0.26" stop-color="white" stop-opacity="0.44"/>
<stop offset="0.35" stop-color="white" stop-opacity="0.3"/>
<stop offset="0.45" stop-color="white" stop-opacity="0.19"/>
<stop offset="0.55" stop-color="white" stop-opacity="0.11"/>
<stop offset="0.67" stop-color="white" stop-opacity="0.05"/>
<stop offset="0.8" stop-color="white" stop-opacity="0.01"/>
<stop offset="1" stop-color="white" stop-opacity="0"/>
</radialGradient>
<radialGradient id="paint2_radial_1_1906" cx="0" cy="0" r="1" gradientUnits="userSpaceOnUse" gradientTransform="translate(1194.72 158.157) rotate(-2.96037) scale(15.9237 14.1207)">
<stop stop-color="white" stop-opacity="0.99"/>
<stop offset="0.08" stop-color="white" stop-opacity="0.78"/>
<stop offset="0.17" stop-color="white" stop-opacity="0.6"/>
<stop offset="0.26" stop-color="white" stop-opacity="0.44"/>
<stop offset="0.35" stop-color="white" stop-opacity="0.3"/>
<stop offset="0.45" stop-color="white" stop-opacity="0.19"/>
<stop offset="0.55" stop-color="white" stop-opacity="0.11"/>
<stop offset="0.67" stop-color="white" stop-opacity="0.05"/>
<stop offset="0.8" stop-color="white" stop-opacity="0.01"/>
<stop offset="1" stop-color="white" stop-opacity="0"/>
</radialGradient>
<radialGradient id="paint3_radial_1_1906" cx="0" cy="0" r="1" gradientUnits="userSpaceOnUse" gradientTransform="translate(33.1504 141.711) rotate(-2.96037) scale(33.2498 29.4849)">
<stop stop-color="white" stop-opacity="0.99"/>
<stop offset="0.08" stop-color="white" stop-opacity="0.78"/>
<stop offset="0.17" stop-color="white" stop-opacity="0.6"/>
<stop offset="0.26" stop-color="white" stop-opacity="0.44"/>
<stop offset="0.35" stop-color="white" stop-opacity="0.3"/>
<stop offset="0.45" stop-color="white" stop-opacity="0.19"/>
<stop offset="0.55" stop-color="white" stop-opacity="0.11"/>
<stop offset="0.67" stop-color="white" stop-opacity="0.05"/>
<stop offset="0.8" stop-color="white" stop-opacity="0.01"/>
<stop offset="1" stop-color="white" stop-opacity="0"/>
</radialGradient>
</defs>
</svg>
