<svg width="102" height="18" viewBox="0 0 102 18" fill="none" xmlns="http://www.w3.org/2000/svg">
<path d="M10.321 0.00445244C11.1741 -0.0215108 12.0233 0.131746 12.8142 0.454424C13.6051 0.777103 14.3203 1.2621 14.9141 1.87842C16.1247 3.12774 16.73 4.85406 16.73 7.05739V17.5176H12.3548V7.60012C12.3869 7.1259 12.3222 6.65011 12.1649 6.2019C12.0075 5.75369 11.7607 5.34252 11.4396 4.99359C11.1135 4.68681 10.7295 4.44902 10.3102 4.29433C9.89094 4.13965 9.44503 4.07122 8.99895 4.09311C8.49831 4.06955 7.99829 4.15133 7.53091 4.33321C7.06352 4.51509 6.63907 4.79307 6.28473 5.14935C5.54524 6.03055 5.18 7.16862 5.26781 8.31807V17.5176H0.897461V0.481463H5.27023V2.38951C6.33235 0.79947 8.01593 0.00445244 10.321 0.00445244ZM50.4604 0.481463H55.2738L48.8333 17.5176H43.8504L37.4099 0.481463H42.2233L46.3249 12.4067L50.4604 0.481463ZM68.5592 0.481463H72.932V17.5176H68.5592V15.6095C67.4971 17.1995 65.8135 17.9946 63.5085 17.9946C62.6553 18.0205 61.8061 17.8673 61.0153 17.5446C60.2244 17.2219 59.5092 16.7369 58.9154 16.1206C57.7048 14.8713 57.0994 13.145 57.0994 10.9416V0.481463H61.4722V10.3989C61.4401 10.8731 61.5048 11.3489 61.6622 11.7971C61.8195 12.2453 62.0663 12.6565 62.3874 13.0054C62.7133 13.3126 63.0973 13.5509 63.5165 13.706C63.9358 13.8611 64.3818 13.9299 64.8281 13.9083C65.3283 13.9316 65.8279 13.8496 66.2948 13.6677C66.7617 13.4859 67.1858 13.2081 67.5399 12.8521C68.2794 11.9709 68.6446 10.8328 68.5568 9.68339L68.5592 0.481463ZM80.8301 5.31971C80.8301 5.77401 81.1295 6.14312 81.7284 6.42706C82.4314 6.74714 83.1636 6.99817 83.9147 7.17665C84.7889 7.39734 85.6492 7.6704 86.491 7.99438C87.3584 8.33024 88.1155 8.90249 88.6773 9.64688C89.2962 10.4812 89.6131 11.503 89.5756 12.543C89.6133 13.3263 89.4545 14.1065 89.1139 14.8119C88.7734 15.5174 88.2619 16.1256 87.6265 16.5806C86.1972 17.5626 84.4924 18.0581 82.7622 17.9946C79.2821 17.9946 76.9093 16.643 75.6438 13.94L79.4403 11.7934C79.9374 13.2699 81.0448 14.0081 82.7622 14.0081C84.3215 14.0081 85.1012 13.5198 85.1012 12.543C85.1012 12.0887 84.8017 11.7196 84.2029 11.4357C83.4986 11.1144 82.7668 10.8578 82.0165 10.669C81.1417 10.4366 80.2815 10.1522 79.4403 9.81724C78.5838 9.47819 77.8302 8.92033 77.2539 8.19881C76.6379 7.40787 76.3206 6.42323 76.358 5.4195C76.327 4.65748 76.4787 3.89914 76.8002 3.20834C77.1217 2.51754 77.6036 1.91453 78.2055 1.45009C79.5271 0.456489 81.1467 -0.0535441 82.7961 0.00445244C84.1094 -0.0118982 85.4049 0.310716 86.5588 0.941438C87.6846 1.5623 88.6129 2.49033 89.2367 3.61854L85.5079 5.66287C85.2901 5.12679 84.9124 4.67169 84.4269 4.3601C83.9413 4.04851 83.3716 3.89573 82.7961 3.92275C82.3005 3.90358 81.8105 4.03412 81.3894 4.29755C81.2157 4.40402 81.0728 4.55447 80.9751 4.73384C80.8774 4.91322 80.8282 5.11525 80.8325 5.31971H80.8301Z" fill="white"/>
<path d="M98.0937 6.94974C97.6333 6.95416 97.1771 6.86216 96.7541 6.6796C96.342 6.50659 95.9677 6.25398 95.6524 5.9361C95.3375 5.61708 95.0849 5.24146 94.9079 4.82875C94.5561 3.96405 94.5561 2.99506 94.9079 2.13036C95.0837 1.71694 95.3364 1.34108 95.6524 1.02301C96.0524 0.618785 96.5454 0.319905 97.0876 0.152825C97.6299 -0.0142549 98.2048 -0.0443818 98.7614 0.065111C99.3181 0.174604 99.8393 0.420339 100.279 0.780566C100.718 1.14079 101.063 1.6044 101.282 2.13036C101.463 2.55555 101.555 3.01411 101.551 3.47682C101.555 3.9413 101.464 4.40165 101.282 4.82875C101.108 5.24225 100.857 5.61824 100.542 5.9361C100.227 6.254 99.8526 6.5066 99.4405 6.6796C99.0156 6.8622 98.5576 6.95419 98.0955 6.94974H98.0937ZM98.0955 6.11802C98.5612 6.12321 99.0194 5.99898 99.4193 5.75904C99.8111 5.52905 100.137 5.20127 100.366 4.80746C100.605 4.40544 100.728 3.94496 100.723 3.47682C100.728 3.0102 100.605 2.55127 100.366 2.15104C100.137 1.75583 99.8113 1.42644 99.4193 1.19459C99.017 0.962976 98.5615 0.841124 98.0979 0.841124C97.6343 0.841124 97.1788 0.962976 96.7765 1.19459C96.3843 1.42777 96.057 1.75676 95.825 2.15104C95.5945 2.55539 95.4733 3.01327 95.4733 3.47925C95.4733 3.94523 95.5945 4.40311 95.825 4.80746C96.0571 5.20034 96.3845 5.52772 96.7765 5.75904C97.175 5.99835 97.6314 6.12256 98.0955 6.11802ZM96.8903 5.0417V1.83952H98.5017C98.6491 1.84426 98.7938 1.88143 98.9254 1.94843C99.0807 2.02664 99.2141 2.14274 99.3134 2.28611C99.4277 2.45417 99.4856 2.65456 99.4786 2.85804C99.4862 3.07055 99.4264 3.27999 99.3079 3.45613C99.2051 3.61328 99.0646 3.74195 98.8993 3.83031C98.7615 3.90739 98.6073 3.95016 98.4496 3.95504H97.2819V3.43727H98.2335C98.3503 3.42521 98.4597 3.37399 98.544 3.29185C98.6016 3.23669 98.6462 3.16939 98.6748 3.0948C98.7034 3.02021 98.7152 2.94018 98.7093 2.86047C98.7185 2.78561 98.7081 2.70963 98.6791 2.64006C98.6501 2.57048 98.6035 2.50972 98.544 2.46378C98.4567 2.40335 98.355 2.36743 98.2492 2.35973H97.587V5.04231L96.8903 5.0417ZM98.8146 3.52914L99.6112 5.0417H98.8388L98.0628 3.52914H98.8146Z" fill="white"/>
<path d="M27.9185 17.9946C26.7307 18.0067 25.552 17.786 24.4482 17.3448C23.3658 16.8937 22.3844 16.2289 21.5621 15.3899C20.7274 14.5635 20.0661 13.5772 19.6172 12.4895C19.1777 11.3802 18.9575 10.1953 18.9689 9.00133C18.9575 7.80732 19.1777 6.62251 19.6172 5.51319C20.066 4.42471 20.7276 3.43783 21.5627 2.61097C22.3851 1.77202 23.3665 1.10729 24.4488 0.656079C26.6831 -0.212671 29.1593 -0.212671 31.3936 0.656079C33.5759 1.58186 35.3159 3.32234 36.2476 5.51136C36.6898 6.62004 36.9115 7.8051 36.9001 8.99951C36.9113 10.1953 36.6896 11.3817 36.2476 12.4919C35.7946 13.5843 35.1291 14.5748 34.29 15.4051C33.0212 16.6863 31.3891 17.5413 29.6176 17.8528C29.0566 17.9515 28.4879 17.999 27.9185 17.9946V17.9946ZM27.936 5.22723C27.3517 5.22682 26.7832 5.41801 26.3168 5.77178C25.8503 6.12556 25.5115 6.62261 25.3515 7.18751C25.1916 7.75242 25.2194 8.35434 25.4306 8.90195C25.6418 9.44956 26.025 9.91296 26.522 10.2218L25.8362 13.4204H30.2435C30.238 13.3985 29.7441 11.3931 29.4366 10.1701C29.9149 9.84748 30.2775 9.37883 30.4707 8.83333C30.6639 8.28783 30.6776 7.69435 30.5097 7.14044C30.3419 6.58652 30.0013 6.1015 29.5384 5.75691C29.0754 5.41233 28.5145 5.22642 27.9384 5.22662L27.936 5.22723Z" fill="#38D9BA"/>
</svg>
