<svg width="1436" height="898" viewBox="0 0 1436 898" fill="none" xmlns="http://www.w3.org/2000/svg">
<path d="M1436 873.231V872.22L1417.24 868.58L1436 855.791V854.588L1415.87 868.312L1258.34 837.744L1317.32 807.758L1436 828.802V827.791L1318.82 807.01L1376.85 777.509L1436 786.841V785.83L1378.38 776.731L1419.61 755.767L1436 758.204V757.193L1421.16 754.989L1436 747.447V746.325L1419.46 754.731L1292.11 735.79L1332.61 718.795L1436 733.207V732.196L1334.43 718.007L1388.95 695.133L1436 700.744V699.733L1389.52 694.172V597.622L1436 601.459V600.448L1389.52 596.606V499.368L1436 501.304V500.293L1389.52 498.357V399.279L1436 399.183V398.172L1389.52 398.268V301.869L1436 299.994V298.983L1389.52 300.853V200.632L1436 196.806V195.795L1389.52 199.626V100.508L1436 94.7302V93.7192L1389.52 99.5021V4.16985L1436 -3.35705V-4.36805L1389.52 3.16391V-97.7288L1436 -107.252V-108.263L1389.52 -98.7398V-113H1388.56V-98.5629L1282.2 -76.7708V-113H1281.24V-76.5737L1186.26 -57.1119V-113H1185.3V-56.8895L1099.62 -39.3385V-113H1098.66V-39.1667L1019.87 -23.021V-103.057L1061.17 -113H1056.86L1019.87 -104.093V-113H1018.91V-103.861L940.939 -85.0964V-113H939.982V-84.8639L871.25 -68.3189V-113H870.293V-68.0863L805.701 -52.5371V-113H804.744V-52.3097L746.667 -38.3275V-109.108L760.266 -113H756.604L746.667 -110.159V-113H745.71V-109.881L691.367 -94.3369V-113H690.41V-94.3673L635.377 -113H632.242L690.41 -93.2855V-25.043L631.84 -42.23V-113H630.883V-42.508L572.686 -59.6091V-113H571.729V-59.8871L505.999 -79.2073V-113H505.041V-79.4904L432.715 -100.742V-113H431.757V-101.02L390.97 -113H387.399L431.757 -99.9733V-19.2095L351.949 -38.7926V-113H350.992V-39.0302L261.577 -60.9689V-113H260.62V-61.2065L165.676 -84.505V-113H164.719V-84.7425L54.3957 -111.812V-113H53.4383V-112.05L49.5611 -113H45.3297L53.4383 -111.008V-8.3615L0 -18.8152V-17.8042L53.4383 -7.3505V93.4867L0 85.7019V86.7129L53.4383 94.4977V195.492L0 190.325V191.336L53.4383 196.508V299.397L0 296.92V297.931L53.4383 300.408V400.083L0 400.133V401.144L53.4383 401.114V500.97L0 503.629V504.64L53.4383 501.981V602.141L0 607.444V608.455L53.4383 603.152V706.598L0 714.625V715.636L53.8835 707.548L104.905 722.308L0 739.47V740.481L107.164 722.955L149.406 735.178L26.8676 755.859L0 746.689V747.75L24.8045 756.222L0 760.408V761.419L26.8053 756.87L86.3945 777.226L0 793.23V794.241L88.3523 777.913L154.375 800.464L0 831.805V832.998L76.9026 865.815L0 883.421V884.432L78.5013 866.462L152.317 898H154.873L80.1432 866.108L239.611 829.596L325.718 859.011L174.541 898H178.576L327.442 859.582L426.176 893.309L410.318 898H413.884L427.842 893.895L439.861 898H442.972L429.512 893.4L561.773 854.476L676.701 887.728L646.636 898H649.747L678.381 888.229L712.155 898H715.784L680.046 887.663L798.153 847.364L939.953 882.426L902.837 898H905.431L941.585 882.835L1002.93 898H1007.11L943.126 882.178L1028.33 846.424L1175.07 878.938L1137.6 898H1139.81L1176.63 879.297L1261.13 898H1265.79L1178.05 878.559L1256.88 838.482L1414.69 869.101L1372.34 898H1374.1L1416.09 869.369L1436 873.231ZM1317.18 806.697L1180.73 782.493L1243.06 756.339L1375.18 777.226L1317.18 806.697ZM923.626 704.803L841.415 691.802L899.841 678.426L979.778 690.315L923.626 704.803ZM982.344 690.7L1070.42 703.797L1016.88 719.559L926.124 705.207L982.344 690.7ZM529.736 696.351L607.945 681.899L677.792 694.284L600.219 710.025L529.736 696.351ZM597.606 710.551L504.744 729.385L434.811 713.892L527.012 696.857L597.606 710.551ZM610.774 681.378L683.732 667.891L753.488 678.921L680.463 693.738L610.774 681.378ZM680.473 694.789L761.319 709.135L685.24 726.55L602.79 710.551L680.473 694.789ZM683.167 694.243L756.341 679.397L836.101 692.034L763.823 708.579L683.167 694.243ZM838.777 692.433L921.165 705.46L849.94 723.83L766.384 709.009L838.777 692.433ZM838.744 691.422L759.165 678.805L819.731 666.516L897.098 678.022L838.744 691.422ZM756.322 678.386L686.714 667.381L748.529 655.957L816.806 666.117L756.322 678.386ZM683.723 666.911L619.936 656.801L682.895 646.185L745.452 655.491L683.723 666.911ZM680.741 667.462L607.94 680.913L544.206 669.605L616.81 657.352L680.741 667.462ZM605.111 681.434L527.012 695.83L462.631 683.339L541.233 670.07L605.111 681.434ZM524.312 696.366L432.308 713.371L368.573 699.217L459.802 683.815L524.312 696.366ZM429.766 713.841L333.899 731.559L270.327 715.838L365.936 699.697L429.766 713.841ZM432.293 714.402L502.337 729.921L406.173 749.383L336.287 732.1L432.293 714.402ZM504.764 730.457L587.851 748.867L492.328 770.735L408.461 750.01L504.764 730.457ZM507.195 729.952L600.2 711.081L682.808 727.111L590.143 748.342L507.195 729.952ZM685.259 727.586L770.941 744.212L678.812 767.97L592.45 748.832L685.259 727.586ZM687.691 727.03L763.866 709.59L847.589 724.442L773.209 743.651L687.691 727.03ZM849.959 724.866L942.858 741.346L870.762 762.577L775.507 744.09L849.959 724.866ZM852.309 724.26L923.63 705.859L1014.58 720.241L945.008 740.709L852.309 724.26ZM1016.92 720.61L1119.18 736.786L1052.03 759.7L947.281 741.078L1016.92 720.61ZM1019.18 719.943L1072.76 704.181L1171.62 718.886L1121.23 736.073L1019.18 719.943ZM1173.79 719.21L1288.38 736.255L1242.94 755.323L1123.36 736.417L1173.79 719.21ZM1173.71 718.199L1075.07 703.539L1122.74 689.512L1218.58 702.902L1173.71 718.199ZM1072.71 703.175L984.847 690.108L1034.82 677.218L1120.33 689.163L1072.71 703.175ZM982.286 689.724L902.54 677.865L954.409 665.986L1032.2 676.854L982.286 689.724ZM899.798 677.455L822.637 665.976L876.338 655.082L951.599 665.596L899.798 677.455ZM819.712 665.47L751.588 655.36L806.3 645.25L873.313 654.617L819.712 665.47ZM748.51 654.855L686.111 645.574L741.737 636.181L803.136 644.775L748.51 654.855ZM682.89 645.093L630.643 637.364L685.575 628.381L738.42 635.767L682.89 645.093ZM679.673 645.634L616.805 656.25L564.994 648.056L627.369 637.855L679.673 645.634ZM613.679 656.755L541.252 668.983L491.203 660.102L561.816 648.556L613.679 656.755ZM538.289 669.479L459.826 682.728L410.907 673.235L488.197 660.597L538.289 669.479ZM456.993 683.203L365.96 698.57L319.271 688.288L408.054 673.77L456.993 683.203ZM363.308 699.081L267.862 715.196L222.815 704.075L316.566 688.723L363.308 699.081ZM331.491 731.969L215.793 753.346L153.925 735.451L267.848 716.242L331.491 731.969ZM333.884 732.555L403.865 749.889L286.243 773.728L217.966 753.973L333.884 732.555ZM406.163 750.429L490.155 771.2L371.445 798.376L288.334 774.335L406.163 750.429ZM492.323 771.736L580.024 793.422L460.693 824.197L373.437 798.957L492.323 771.736ZM494.501 771.231L590.148 749.332L676.648 768.496L582.059 792.891L494.501 771.231ZM678.816 768.981L775.809 790.47L682.871 817.813L584.136 793.397L678.816 768.981ZM680.97 768.425L773.233 744.626L868.675 763.148L777.833 789.884L680.97 768.425ZM870.824 763.562L979.06 784.566L890.392 814.82L779.848 790.329L870.824 763.562ZM872.93 762.946L945.103 741.715L1050.07 760.337L980.979 783.919L872.93 762.946ZM1052.12 760.696L1177.19 782.883L1113.47 809.618L982.966 784.298L1052.12 760.696ZM1054.1 760.024L1121.33 737.084L1241.18 756.04L1178.9 782.17L1054.1 760.024ZM1417.89 755.474L1376.67 776.422L1244.82 755.575L1290.29 736.493L1417.89 755.474ZM1290.17 735.456L1175.87 718.452L1220.78 703.13L1330.65 718.477L1290.17 735.456ZM1282.2 -75.7396L1388.56 -97.5368V3.30039L1282.2 20.5329V-75.7396ZM1282.2 21.554L1388.56 4.32656V99.6083L1282.2 112.832V21.554ZM1282.2 113.848L1388.56 100.624V199.702L1282.2 208.463V113.848ZM1282.2 209.474L1388.56 200.713V300.893L1282.2 305.165V209.474ZM1282.2 306.176L1388.56 301.904V398.263L1282.2 398.485V306.176ZM1282.2 399.496L1388.56 399.274V498.321L1282.2 493.888V399.496ZM1282.2 494.899L1388.56 499.332V596.51L1282.2 587.724V494.899ZM1282.2 588.74L1388.56 597.526V694.076L1282.2 681.388V588.74ZM1281.77 682.344L1386.93 694.885L1332.49 717.729L1222.92 702.427L1281.77 682.344ZM1186.26 -56.0807L1281.24 -75.5424V20.6896L1186.26 36.072V-56.0807ZM1186.26 37.0981L1281.24 21.7107V112.959L1186.26 124.767V37.0981ZM1186.26 125.778L1281.24 113.97V208.538L1186.26 216.359V125.778ZM1186.26 217.375L1281.24 209.549V305.205L1186.26 309.022V217.375ZM1186.26 310.033L1281.24 306.216V398.485L1186.26 398.682V310.033ZM1186.26 399.693L1281.24 399.496V493.853L1186.26 489.895V399.693ZM1186.26 490.906L1281.24 494.864V587.648L1186.26 579.803V490.906ZM1186.26 580.814L1281.24 588.659V681.262L1186.26 669.934V580.814ZM1185.82 670.899L1279.47 682.071L1220.71 702.119L1125.11 688.763L1185.82 670.899ZM1099.66 -38.3174L1185.34 -55.8734V36.2287L1099.66 50.1046V-38.3174ZM1099.66 51.1561L1185.34 37.2801V124.878L1099.66 135.529V51.1561ZM1099.66 136.586L1185.34 125.935V216.439L1099.66 223.516V136.586ZM1099.66 224.543L1185.34 217.491V309.057L1099.66 312.5V224.543ZM1099.66 313.546L1185.34 310.104V398.723L1099.66 398.9V313.546ZM1099.66 399.911L1185.34 399.734V489.89L1099.66 486.351V399.911ZM1099.66 487.337L1185.34 490.875V579.732L1099.66 572.655V487.337ZM1099.66 573.696L1185.34 580.773V669.858L1099.66 659.642V573.696ZM1099.21 660.602L1183.26 670.596L1122.67 688.425L1037.37 676.505L1099.21 660.602ZM1019.87 -22.01L1098.67 -38.1557V50.2765L1019.87 63.0454V-22.01ZM1019.87 64.0312L1098.67 51.2875V135.655L1019.87 145.452V64.0312ZM1019.87 146.428L1098.67 136.631V223.572L1019.87 230.063V146.428ZM1019.87 231.043L1098.67 224.553V312.51L1019.87 315.674V231.043ZM1019.87 316.68L1098.67 313.516V398.829L1019.87 398.991V316.68ZM1019.87 400.002L1098.67 399.84V486.215L1019.87 482.985V400.002ZM1019.87 483.945L1098.67 487.226V572.529L1019.87 566.023V483.945ZM1019.87 567.034L1098.67 573.545V659.48L1019.87 650.083V567.034ZM1019.41 651.018L1096.42 660.203L1034.77 676.106L957.175 665.268L1019.41 651.018ZM940.939 -84.0551L1018.91 -102.824V-22.8239L940.939 -6.845V-84.0551ZM940.939 -5.81883L1018.91 -21.7926V63.1819L940.939 75.8194V-5.81883ZM940.939 76.8355L1018.91 64.198V145.583L940.939 155.274V76.8355ZM940.939 156.28L1018.91 146.584V230.144L940.939 236.563V156.28ZM940.939 237.579L1018.91 231.16V315.745L940.939 318.874V237.579ZM940.939 319.885L1018.91 316.756V399.026L940.939 399.188V319.885ZM940.939 400.199L1018.91 400.037V482.939L940.939 479.694V400.199ZM940.939 480.695L1018.91 483.94V565.978L940.939 559.537V480.695ZM940.939 560.564L1018.91 567.009V649.992L940.939 640.701V560.564ZM940.547 642.02L940.939 641.939V641.712L1016.44 650.715L954.37 664.924L879.311 654.425L940.547 642.02ZM871.25 -67.2826L939.982 -83.8276V-6.6529L871.25 7.43033V-67.2826ZM871.25 8.46154L939.982 -5.62169V75.9711L871.25 87.0921V8.46154ZM871.25 88.1233L939.982 77.0023V155.38L871.25 163.923V88.1233ZM871.25 164.959L939.982 156.411V236.644L871.25 242.306V164.959ZM871.25 243.312L939.982 237.655V318.914L871.25 321.674V243.312ZM871.25 322.675L939.982 319.915V399.183L871.25 399.324V322.675ZM871.25 400.335L939.982 400.194V479.633L871.25 476.772V400.335ZM871.25 477.783L939.982 480.644V559.446L871.25 553.77V477.783ZM871.25 554.786L939.982 560.463V640.554L871.25 632.355V554.786ZM870.771 633.32L938.44 641.408L876.295 654.015L809.425 644.664L870.771 633.32ZM805.673 -51.511L870.293 -67.05V7.62747L805.701 20.8615L805.673 -51.511ZM805.673 21.8826L870.264 8.64858V87.2589L805.673 97.7227V21.8826ZM805.673 98.7186L870.264 88.2547V164.044L805.673 172.072V98.7186ZM805.673 173.068L870.264 165.035V242.367L805.673 247.689V173.068ZM805.673 248.69L870.293 243.378V321.73L805.701 324.323L805.673 248.69ZM805.673 325.294L870.293 322.741V399.355L805.701 399.491L805.673 325.294ZM805.673 400.457L870.264 400.32V476.716L805.673 474.027V400.457ZM805.673 475.038L870.264 477.727V553.674L805.673 548.341V475.038ZM805.673 549.347L870.264 554.68V632.218L805.673 624.514V549.347ZM805.194 625.475L867.373 632.891L806.276 644.239L745.045 635.686L805.194 625.475ZM746.667 -37.2913L804.744 -51.2734V21.0586L746.667 32.9581V-37.2913ZM746.667 33.9842L804.744 22.0848V97.8744L746.667 107.282V33.9842ZM746.667 108.293L804.744 98.8854V172.183L746.667 179.401V108.293ZM746.667 180.417L804.744 173.194V247.78L746.667 252.567V180.417ZM746.667 253.563L804.744 248.781V324.343L746.667 326.679V253.563ZM746.667 327.675L804.744 325.339V399.456L746.667 399.577V327.675ZM746.667 400.588L804.744 400.467V473.997L746.667 471.58V400.588ZM746.667 472.586L804.744 475.008V548.27L746.667 543.473V472.586ZM746.667 544.489L804.744 549.286V624.418L746.667 617.493V544.489ZM746.189 618.453L801.671 625.07L741.713 635.18L688.931 627.81L746.189 618.453ZM691.367 -93.2855L745.71 -108.835V-38.1001L691.367 -25.0177V-93.2855ZM691.367 -23.9814L745.71 -37.0638V33.1552L691.367 44.2762V-23.9814ZM691.367 45.3176L745.71 34.1966V107.438L691.367 116.239V45.3176ZM691.367 117.265L745.71 108.46V179.533L691.367 186.286V117.265ZM691.367 187.307L745.71 180.549V252.643L691.367 257.122V187.307ZM691.367 258.133L745.71 253.659V326.719L691.367 328.898V258.133ZM691.367 329.914L745.71 327.73V399.577L691.367 399.688V329.914ZM691.367 400.719L745.71 400.608V471.56L691.367 469.296V400.719ZM691.367 470.307L745.71 472.571V543.417L691.367 538.928V470.307ZM691.367 539.939L745.71 544.428V617.397L691.367 610.916V539.939ZM690.888 611.877L742.584 618.044L685.57 627.365L634.908 620.288L690.888 611.877ZM631.84 -41.1786L690.39 -23.9916V44.2509L631.84 29.8998V-41.1786ZM631.84 30.9361L690.39 45.3024V116.224L631.84 104.769V30.9361ZM631.84 105.801L690.39 117.25V186.256L631.84 177.748V105.801ZM631.84 178.77L690.39 187.297V257.112L631.84 251.466V178.77ZM631.84 252.477L690.39 258.138V328.908L631.84 326.183V252.477ZM631.84 327.205L690.39 329.914V399.719L631.84 399.754V327.205ZM631.84 400.765L690.39 400.73V469.306L631.84 472.202V400.765ZM631.84 473.223L690.39 470.312V538.938L631.84 544.741V473.223ZM631.84 545.768L690.39 539.954V610.927L631.84 619.722V545.768ZM631.361 620.824L682.177 627.901L627.341 636.869L575.621 629.175L631.361 620.824ZM572.682 -58.5678L630.883 -41.4616V29.6622L572.705 15.397L572.682 -58.5678ZM572.682 16.408L630.883 30.6985V104.582L572.686 93.2036L572.682 16.408ZM572.682 94.2196L630.883 105.614V177.607L572.686 169.13L572.682 94.2196ZM572.682 170.141L630.883 178.628V251.354L572.686 245.728L572.682 170.141ZM572.682 246.734L630.883 252.37V326.138L572.686 323.444L572.682 246.734ZM572.682 324.445L630.883 327.149V399.744L572.686 399.779L572.682 324.445ZM572.682 400.775L630.878 400.74V472.238L572.682 475.129V400.775ZM572.682 476.14L630.878 473.249V544.817L572.682 550.595V476.14ZM572.682 551.611L630.883 545.848V619.864L572.686 628.604L572.682 551.611ZM572.203 629.686L624.071 637.4L561.792 647.585L508.823 639.219L572.203 629.686ZM505.999 -78.1559L571.748 -58.8407V15.1443L505.999 -0.991305V-78.1559ZM505.999 0.0500239L571.748 16.1856V93.0216L505.999 80.1516V0.0500239ZM505.999 81.1828L571.748 94.0427V168.988L505.999 159.414V81.1828ZM505.999 160.43L571.748 170.035V245.657L505.999 239.273V160.43ZM505.999 240.299L571.748 246.658V323.398L505.999 320.365V240.299ZM505.999 321.376L571.748 324.409V399.779L505.999 399.82V321.376ZM505.999 400.841L571.748 400.8V475.205L505.999 478.475V400.841ZM505.999 479.486L571.748 476.216V550.722L505.999 557.248V479.486ZM505.999 558.253L571.748 551.733V628.761L505.999 638.633V558.253ZM505.52 639.73L558.652 648.126L488.216 659.647L435.357 650.27L505.52 639.73ZM432.715 -99.6902L505.056 -78.4592V-1.22384L432.715 -18.977V-99.6902ZM432.715 -17.9407L505.056 -0.187562V79.9645L432.715 65.8156V-17.9407ZM432.715 66.8468L505.056 81.0008V159.272L432.715 148.733V66.8468ZM432.715 149.749L505.056 160.288V239.182L432.715 232.181V149.749ZM432.715 233.192L505.056 240.193V320.31L432.715 316.958V233.192ZM432.715 317.964L505.056 321.316V399.815L432.715 399.86V317.964ZM432.715 400.866L505.056 400.821V478.501L432.715 482.11V400.866ZM432.715 483.111L505.056 479.512V557.313L432.715 564.501V483.111ZM432.715 565.507L505.056 558.329V638.759L432.715 649.633V565.507ZM432.236 650.72L485.215 660.117L408.063 672.754L354.658 662.392L432.236 650.72ZM351.968 -37.7715L431.757 -18.1733V65.6285L351.949 50.0238L351.968 -37.7715ZM351.968 51.0348L431.757 66.6598V148.596L351.964 136.97L351.968 51.0348ZM351.968 137.981L431.762 149.607V232.09L351.949 224.371L351.968 137.981ZM351.968 225.377L431.757 233.106V316.918L351.964 313.217L351.968 225.377ZM351.968 314.223L431.757 317.929V399.865L351.964 399.916L351.968 314.223ZM351.968 400.917L431.762 400.866V482.145L351.968 486.114V400.917ZM351.968 487.125L431.762 483.156V564.587L351.968 572.509V487.125ZM351.968 573.525L431.757 565.614V649.8L351.964 661.785L351.968 573.525ZM351.672 662.821L405.187 673.204L316.59 687.712L263.865 676.03L351.672 662.821ZM261.577 -59.9225L350.992 -37.9787V49.8367L261.577 32.3464V-59.9225ZM261.577 33.3877L350.992 50.873V136.833L261.577 123.807V33.3877ZM261.577 124.838L350.992 137.864V224.305L261.577 215.626V124.838ZM261.577 216.652L350.992 225.301V313.177L261.577 309.037V216.652ZM261.577 310.058L350.992 314.198V399.926L261.577 399.981V310.058ZM261.577 400.992L350.992 400.937V486.184L261.577 490.628V400.992ZM261.577 491.639L350.992 487.195V572.625L261.577 581.496V491.639ZM261.577 582.512L350.992 573.636V661.932L261.577 675.363V582.512ZM261.098 676.444L313.924 688.147L220.345 703.448L167.801 690.457L261.098 676.444ZM165.676 -83.4687L260.62 -60.1651V32.1594L165.676 13.5924V-83.4687ZM165.676 14.5983L260.62 33.1906V123.675L165.676 109.835V14.5983ZM165.676 110.835L260.62 124.686V215.535L165.676 206.35V110.835ZM165.676 207.345L260.62 216.53V308.991L165.676 304.594V207.345ZM165.676 305.584L260.62 309.982V399.961L165.676 400.022V305.584ZM165.676 401.023L260.62 400.962V490.668L165.676 495.39V401.023ZM165.676 496.38L260.62 491.659V581.562L165.676 590.985V496.38ZM165.676 591.996L260.62 582.573V675.479L165.676 689.734V591.996ZM54.3957 -110.776L164.719 -83.681V13.4003L54.3957 -8.17446V-110.776ZM54.3957 -7.1483L164.719 14.4315V109.698L54.3957 93.6282V-7.1483ZM54.3957 94.6442L164.719 110.719V206.259L54.3957 195.582V94.6442ZM54.3957 196.599L164.719 207.275V304.543L54.3957 299.437V196.599ZM54.3957 300.454L164.719 305.554V400.032L54.3957 400.103V300.454ZM54.3957 401.114L164.719 401.043V495.435L54.3957 500.925V401.114ZM54.3957 501.936L164.719 496.446V591.096L54.3957 602.045V501.936ZM54.3957 603.036L164.719 592.087V689.886L54.3957 706.456V603.036ZM56.2721 707.169L165.174 690.816L217.827 703.827L107.221 721.934L56.2721 707.169ZM109.476 722.592L220.292 704.469L265.368 715.59L151.694 734.799L109.476 722.592ZM28.8923 756.556L151.642 735.831L213.586 753.751L88.4193 776.882L28.8923 756.556ZM90.3675 777.555L215.749 754.382L284.108 774.153L156.328 800.085L90.3675 777.555ZM78.5636 865.436L1.46951 832.533L156.266 801.126L237.797 828.979L78.5636 865.436ZM158.218 800.732L286.2 774.764L369.421 798.841L239.659 828.549L158.218 800.732ZM241.473 829.171L371.417 799.428L458.773 824.703L327.489 858.571L241.473 829.171ZM427.861 892.864L329.227 859.147L460.678 825.243L559.973 853.971L427.861 892.864ZM561.773 853.471L462.593 824.773L582.083 793.938L680.951 818.384L561.773 853.471ZM678.362 887.198L563.568 853.986L682.89 818.884L796.334 846.939L678.362 887.198ZM798.11 846.338L684.804 818.323L777.833 790.925L888.544 815.452L798.11 846.338ZM941.509 881.799L799.914 846.788L890.444 815.897L1026.65 846.075L941.509 881.799ZM1028.27 845.403L892.278 815.275L981.042 784.985L1111.79 810.356L1028.27 845.403ZM1176.51 878.26L1029.96 845.792L1113.57 810.71L1255.28 838.209L1176.51 878.26ZM1256.74 837.466L1115.24 810.008L1179.01 783.252L1315.69 807.516L1256.74 837.466Z" fill="url(#paint0_linear_1_1476)" fill-opacity="0.1"/>
<defs>
<linearGradient id="paint0_linear_1_1476" x1="718" y1="2.49999" x2="718" y2="643" gradientUnits="userSpaceOnUse">
<stop stop-color="white"/>
<stop offset="1" stop-color="#000910"/>
</linearGradient>
</defs>
</svg>
