<svg width="102" height="20" viewBox="0 0 102 20" fill="none" xmlns="http://www.w3.org/2000/svg">
<path d="M9.47207 0.75551C10.3296 0.728897 11.1832 0.885989 11.9781 1.21675C12.7731 1.5475 13.492 2.04464 14.0888 2.67639C15.3057 3.95697 15.9141 5.72651 15.9141 7.985V18.707H11.5164V8.5413C11.5486 8.05522 11.4837 7.56751 11.3255 7.10808C11.1673 6.64866 10.9192 6.22719 10.5964 5.86954C10.2687 5.55508 9.88268 5.31133 9.46126 5.15277C9.03984 4.99421 8.59163 4.92407 8.14325 4.94652C7.64003 4.92236 7.13743 5.00619 6.66764 5.19262C6.19784 5.37906 5.77121 5.664 5.41504 6.02919C4.67174 6.93245 4.30462 8.09901 4.39288 9.27722V18.707H0V1.24446H4.39531V3.20026C5.46291 1.57043 7.15516 0.75551 9.47207 0.75551ZM49.8184 1.24446H54.6567L48.1829 18.707H43.1743L36.7006 1.24446H41.5389L45.6616 13.4682L49.8184 1.24446ZM68.0105 1.24446H72.4058V18.707H68.0105V16.7512C66.9429 18.381 65.2507 19.1959 62.9338 19.1959C62.0762 19.2226 61.2227 19.0655 60.4277 18.7347C59.6327 18.4039 58.9138 17.9068 58.317 17.2751C57.1001 15.9945 56.4917 14.2249 56.4917 11.9665V1.24446H60.887V11.4101C60.8548 11.8962 60.9197 12.3839 61.0779 12.8434C61.2361 13.3028 61.4842 13.7243 61.8069 14.0819C62.1345 14.3968 62.5204 14.641 62.9419 14.8C63.3633 14.959 63.8116 15.0295 64.2601 15.0074C64.763 15.0312 65.2651 14.9472 65.7344 14.7608C66.2038 14.5744 66.63 14.2896 66.9859 13.9248C67.7292 13.0215 68.0963 11.8549 68.0081 10.6767L68.0105 1.24446ZM80.3447 6.20382C80.3447 6.66949 80.6456 7.04784 81.2476 7.33888C81.9543 7.66698 82.6902 7.92429 83.4452 8.10723C84.3239 8.33345 85.1886 8.61335 86.0347 8.94544C86.9066 9.2897 87.6676 9.87627 88.2324 10.6393C88.8544 11.4945 89.1729 12.5419 89.1353 13.6079C89.1731 14.4108 89.0135 15.2105 88.6712 15.9336C88.3289 16.6568 87.8148 17.2802 87.1761 17.7465C85.7394 18.7531 84.0258 19.2611 82.2868 19.1959C78.7887 19.1959 76.4036 17.8106 75.1316 15.0399L78.9477 12.8396C79.4474 14.353 80.5604 15.1097 82.2868 15.1097C83.8541 15.1097 84.6377 14.6091 84.6377 13.6079C84.6377 13.1423 84.3368 12.7639 83.7348 12.4729C83.0269 12.1435 82.2913 11.8805 81.5372 11.6871C80.6579 11.4488 79.7932 11.1572 78.9477 10.8139C78.0868 10.4664 77.3293 9.89457 76.75 9.15499C76.1309 8.34425 75.8119 7.33496 75.8496 6.3061C75.8184 5.52501 75.9708 4.74769 76.294 4.0396C76.6171 3.33151 77.1016 2.7134 77.7065 2.23733C79.0349 1.21886 80.6629 0.696062 82.3208 0.75551C83.6409 0.73875 84.9431 1.06944 86.1029 1.71595C87.2345 2.35235 88.1675 3.30361 88.7945 4.46006L85.0466 6.55556C84.8277 6.00607 84.448 5.53957 83.96 5.22018C83.4719 4.90079 82.8993 4.74419 82.3208 4.77189C81.8226 4.75224 81.3301 4.88605 80.9068 5.15607C80.7322 5.2652 80.5886 5.41942 80.4904 5.60328C80.3922 5.78715 80.3427 5.99423 80.3471 6.20382H80.3447Z" fill="white"/>
<path d="M97.6971 7.87461C97.2344 7.87913 96.7759 7.78483 96.3507 7.5977C95.9365 7.42036 95.5603 7.16143 95.2433 6.83559C94.9268 6.50859 94.6729 6.12356 94.495 5.70052C94.1413 4.81417 94.1413 3.82093 94.495 2.93458C94.6716 2.51082 94.9256 2.12556 95.2433 1.79952C95.6454 1.38518 96.1409 1.07881 96.6859 0.907552C97.231 0.73629 97.8089 0.705409 98.3684 0.817643C98.9279 0.929876 99.4517 1.18176 99.8936 1.55101C100.335 1.92025 100.682 2.39546 100.902 2.93458C101.084 3.37042 101.176 3.84046 101.172 4.31475C101.176 4.79085 101.084 5.26273 100.902 5.70052C100.727 6.12438 100.475 6.50978 100.158 6.83559C99.8413 7.16144 99.4651 7.42037 99.0509 7.5977C98.6238 7.78487 98.1635 7.87916 97.699 7.87461H97.6971ZM97.699 7.02206C98.1671 7.02738 98.6276 6.90004 99.0296 6.6541C99.4234 6.41835 99.7512 6.08237 99.9812 5.67869C100.221 5.26662 100.345 4.79461 100.34 4.31475C100.345 3.83645 100.221 3.36603 99.9812 2.95579C99.7514 2.55068 99.4237 2.21305 99.0296 1.97539C98.6253 1.73798 98.1674 1.61308 97.7014 1.61308C97.2354 1.61308 96.7775 1.73798 96.3732 1.97539C95.9789 2.21441 95.6499 2.55164 95.4167 2.95579C95.1851 3.37025 95.0633 3.8396 95.0633 4.31724C95.0633 4.79489 95.1851 5.26423 95.4167 5.67869C95.6501 6.08142 95.9791 6.41699 96.3732 6.6541C96.7737 6.8994 97.2324 7.02672 97.699 7.02206ZM96.4876 5.9188V2.63647H98.1072C98.2555 2.64132 98.4008 2.67943 98.5331 2.74811C98.6893 2.82827 98.8234 2.94728 98.9231 3.09424C99.0381 3.2665 99.0963 3.47191 99.0892 3.68048C99.0969 3.89831 99.0368 4.11299 98.9177 4.29354C98.8143 4.45463 98.673 4.58651 98.507 4.67709C98.3684 4.7561 98.2134 4.79994 98.0549 4.80494H96.8812V4.27421H97.8377C97.9551 4.26185 98.0651 4.20935 98.1498 4.12515C98.2077 4.06861 98.2526 3.99963 98.2813 3.92317C98.31 3.84671 98.3218 3.76468 98.3159 3.68298C98.3252 3.60624 98.3147 3.52836 98.2856 3.45704C98.2564 3.38572 98.2096 3.32344 98.1498 3.27635C98.0621 3.21441 97.9598 3.17759 97.8535 3.1697H97.1879V5.91943L96.4876 5.9188ZM98.4218 4.36838L99.2225 5.9188H98.4461L97.6661 4.36838H98.4218Z" fill="white"/>
<path d="M27.1604 19.1958C25.9665 19.2082 24.7817 18.982 23.6723 18.5298C22.5843 18.0674 21.5978 17.386 20.7713 16.5259C19.9323 15.6789 19.2675 14.6679 18.8164 13.5529C18.3745 12.4158 18.1532 11.2014 18.1647 9.97748C18.1532 8.75358 18.3745 7.53911 18.8164 6.40203C19.2675 5.2863 19.9325 4.27471 20.7719 3.42716C21.5985 2.56721 22.5849 1.88584 23.6729 1.42333C25.9186 0.532839 28.4077 0.532839 30.6534 1.42333C32.847 2.37229 34.596 4.15634 35.5324 6.40015C35.9769 7.53658 36.1998 8.7513 36.1883 9.97561C36.1995 11.2013 35.9767 12.4174 35.5324 13.5554C35.0771 14.6752 34.4082 15.6905 33.5648 16.5415C32.2895 17.8548 30.6489 18.7312 28.8683 19.0505C28.3044 19.1517 27.7328 19.2003 27.1604 19.1958V19.1958ZM27.178 6.1089C26.5907 6.10849 26.0193 6.30446 25.5504 6.66709C25.0816 7.02972 24.741 7.53922 24.5802 8.11826C24.4195 8.6973 24.4474 9.31429 24.6597 9.87561C24.872 10.4369 25.2572 10.9119 25.7567 11.2285L25.0674 14.5071H29.4974C29.4919 14.4847 28.9954 12.4291 28.6863 11.1755C29.1672 10.8448 29.5316 10.3644 29.7258 9.80528C29.92 9.24612 29.9338 8.63779 29.765 8.07C29.5963 7.50222 29.254 7.00506 28.7887 6.65185C28.3233 6.29864 27.7595 6.10808 27.1805 6.10828L27.178 6.1089Z" fill="#38D9BA"/>
</svg>
